<svg width="191" height="64" viewBox="0 0 191 64" fill="none" xmlns="http://www.w3.org/2000/svg">
  <g clip-path="url(#clip0_21667_14059)">
    <path d="M175.79 0.000208H15.2186C14.6333 0.000208 14.0551 0.000208 13.4713 0.003408C12.9826 0.006608 12.4979 0.015904 12.0045 0.023728C10.9327 0.0363709 9.86349 0.13089 8.80604 0.306464C7.75007 0.48586 6.72719 0.824073 5.77198 1.30966C4.81793 1.79936 3.9462 2.43568 3.18839 3.19552C2.42661 3.95323 1.7916 4.82903 1.30779 5.78926C0.822648 6.74758 0.486247 7.77451 0.310209 8.83458C0.132497 9.8933 0.0368681 10.9642 0.0241814 12.0378C0.00936931 12.5283 0.0078051 13.0205 0 13.5112V50.494C0.0078051 50.9908 0.00936931 51.472 0.0241814 51.969C0.036872 53.0425 0.132501 54.1134 0.310209 55.172C0.485761 56.2327 0.822182 57.2602 1.30779 58.2189C1.79138 59.176 2.42648 60.0483 3.18839 60.8018C3.94332 61.565 4.81562 62.2018 5.77198 62.6877C6.72718 63.1746 7.74995 63.5148 8.80604 63.697C9.86367 63.8712 10.9328 63.9657 12.0045 63.9799C12.4979 63.9908 12.9826 63.997 13.4713 63.997C14.055 64.0002 14.6334 64.0002 15.2186 64.0002H175.79C176.364 64.0002 176.947 64.0002 177.52 63.997C178.007 63.997 178.505 63.9908 178.992 63.9799C180.061 63.9665 181.128 63.8719 182.184 63.697C183.243 63.5136 184.27 63.1734 185.23 62.6877C186.185 62.2015 187.057 61.5648 187.811 60.8018C188.571 60.0454 189.207 59.1737 189.697 58.2189C190.179 57.2595 190.512 56.2321 190.685 55.172C190.863 54.1132 190.962 53.0426 190.981 51.969C190.988 51.472 190.988 50.9908 190.988 50.494C191 49.9127 191 49.3346 191 48.7439V15.258C191 14.6721 191 14.0908 190.988 13.5112C190.988 13.0205 190.988 12.5283 190.981 12.0377C190.962 10.9641 190.863 9.89338 190.685 8.83451C190.512 7.77506 190.178 6.74821 189.697 5.7892C188.712 3.86452 187.149 2.29785 185.23 1.30952C184.27 0.825116 183.243 0.486993 182.184 0.30632C181.129 0.129972 180.061 0.0354204 178.992 0.023504C178.505 0.015696 178.007 0.00632 177.52 0.0032C176.947 0 176.364 0.000208 175.79 0.000208Z" fill="#A6A6A6"/>
    <path d="M13.4802 62.6009C12.9939 62.6009 12.5193 62.5946 12.0368 62.5838C11.0373 62.5707 10.0401 62.4835 9.05341 62.3228C8.13338 62.164 7.24212 61.8685 6.40903 61.4462C5.58357 61.0273 4.83069 60.4781 4.17923 59.8196C3.51833 59.1688 2.96811 58.4141 2.55036 57.5852C2.128 56.7509 1.83571 55.8567 1.68366 54.9337C1.51945 53.9419 1.43061 52.939 1.4179 51.9337C1.40778 51.5962 1.39453 50.4727 1.39453 50.4727V13.5118C1.39453 13.5118 1.40864 12.4056 1.41798 12.0806C1.43015 11.0768 1.51847 10.0755 1.68219 9.08525C1.83452 8.15968 2.12704 7.26288 2.54962 6.42589C2.96584 5.59759 3.51301 4.84226 4.16992 4.18917C4.8261 3.52987 5.58139 2.97785 6.40825 2.55321C7.23943 2.13223 8.129 1.83885 9.04717 1.68291C10.0371 1.52062 11.0377 1.43287 12.0407 1.42041L13.481 1.40088H177.513L178.971 1.4212C179.965 1.43304 180.956 1.52 181.937 1.68134C182.865 1.83924 183.763 2.13466 184.604 2.5579C186.261 3.41366 187.608 4.76754 188.459 6.42979C188.875 7.261 189.163 8.15049 189.313 9.06806C189.479 10.0665 189.571 11.0757 189.59 12.0876C189.595 12.5407 189.595 13.0274 189.595 13.5118C189.608 14.1118 189.608 14.6829 189.608 15.2587V48.7446C189.608 49.3258 189.608 49.893 189.595 50.4649C189.595 50.9852 189.595 51.4618 189.589 51.9524C189.57 52.9463 189.479 53.9375 189.316 54.918C189.167 55.8477 188.876 56.7489 188.454 57.59C188.033 58.4099 187.486 59.1581 186.833 59.8071C186.181 60.4692 185.427 61.0216 184.599 61.4431C183.761 61.8687 182.864 62.1653 181.937 62.3228C180.951 62.4843 179.953 62.5716 178.954 62.5838C178.486 62.5946 177.997 62.6009 177.521 62.6009L175.791 62.6041L13.4802 62.6009Z" fill="black"/>
    <path d="M39.5326 32.4807C39.5497 31.1453 39.9036 29.8359 40.5613 28.6743C41.2189 27.5128 42.159 26.5369 43.294 25.8374C42.5729 24.8052 41.6217 23.9557 40.5159 23.3564C39.41 22.7571 38.18 22.4245 36.9235 22.3851C34.2432 22.1031 31.6448 23.9929 30.279 23.9929C28.8867 23.9929 26.7838 22.4131 24.5193 22.4598C23.0546 22.5073 21.6271 22.9342 20.3759 23.6991C19.1247 24.464 18.0926 25.5408 17.3799 26.8244C14.293 32.1819 16.5956 40.0556 19.5526 44.3862C21.0321 46.5067 22.7611 48.8754 25.0236 48.7914C27.2375 48.6994 28.0644 47.3763 30.7368 47.3763C33.3844 47.3763 34.1601 48.7914 36.4685 48.738C38.8441 48.6994 40.3409 46.6081 41.7685 44.4674C42.8315 42.9564 43.6494 41.2865 44.1921 39.5194C42.8119 38.9342 41.6341 37.9547 40.8055 36.7031C39.9769 35.4514 39.5342 33.9829 39.5326 32.4807Z" fill="white"/>
    <path d="M35.1741 19.5371C36.4694 17.9784 37.1076 15.9749 36.9531 13.9521C34.9741 14.1605 33.1461 15.1086 31.8333 16.6075C31.1915 17.3398 30.6998 18.1917 30.3866 19.1145C30.0734 20.0374 29.9447 21.013 30.0078 21.9857C30.9976 21.996 31.9769 21.7809 32.8718 21.3568C33.7667 20.9326 34.5539 20.3105 35.1741 19.5371Z" fill="white"/>
    <path d="M67.5188 43.4235H59.9636L58.1493 48.7938H54.9492L62.1053 28.925H65.4301L72.5862 48.7938H69.3316L67.5188 43.4235ZM60.7461 40.9454H66.7348L63.7826 32.2298H63.7L60.7461 40.9454Z" fill="white"/>
    <path d="M88.0421 41.5513C88.0421 46.0529 85.6385 48.9451 82.0114 48.9451C81.0926 48.9932 80.1788 48.7811 79.3746 48.3329C78.5705 47.8846 77.9086 47.2185 77.4646 46.4107H77.3959V53.5857H74.4297V34.3076H77.3009V36.7169H77.3555C77.8199 35.913 78.493 35.2503 79.3033 34.7993C80.1135 34.3484 81.0305 34.126 81.9568 34.156C85.6244 34.156 88.0421 37.0622 88.0421 41.5513ZM84.9932 41.5513C84.9932 38.6185 83.4812 36.6904 81.1743 36.6904C78.9079 36.6904 77.3835 38.6591 77.3835 41.5513C77.3835 44.4701 78.9079 46.4248 81.1743 46.4248C83.4813 46.4248 84.9932 44.5107 84.9932 41.5513Z" fill="white"/>
    <path d="M103.944 41.5513C103.944 46.0529 101.541 48.945 97.9137 48.945C96.9949 48.9932 96.0811 48.7811 95.277 48.3328C94.4729 47.8846 93.8109 47.2185 93.3669 46.4106H93.2983V53.5857H90.332V34.3075H93.2032V36.7169H93.2577C93.7222 35.913 94.3953 35.2503 95.2055 34.7993C96.0158 34.3484 96.9328 34.126 97.8591 34.156C101.527 34.156 103.944 37.0622 103.944 41.5513ZM100.896 41.5513C100.896 38.6185 99.3836 36.6904 97.0767 36.6904C94.8103 36.6904 93.2859 38.6591 93.2859 41.5513C93.2859 44.4701 94.8103 46.4247 97.0767 46.4247C99.3836 46.4247 100.896 44.5107 100.896 41.5513Z" fill="white"/>
    <path d="M114.458 43.2579C114.678 45.2282 116.588 46.5219 119.197 46.5219C121.697 46.5219 123.496 45.2282 123.496 43.4516C123.496 41.9094 122.411 40.986 119.842 40.3531L117.273 39.7328C113.634 38.8516 111.944 37.1453 111.944 34.3766C111.944 30.9484 114.924 28.5938 119.156 28.5938C123.345 28.5938 126.216 30.9484 126.312 34.3766H123.318C123.139 32.3937 121.504 31.1969 119.114 31.1969C116.725 31.1969 115.09 32.4078 115.09 34.1703C115.09 35.575 116.134 36.4016 118.689 37.0343L120.872 37.5718C124.939 38.5359 126.629 40.1734 126.629 43.0796C126.629 46.7968 123.675 49.1249 118.977 49.1249C114.581 49.1249 111.614 46.8515 111.422 43.2577L114.458 43.2579Z" fill="white"/>
    <path d="M133.031 30.8799V34.308H135.779V36.6627H133.031V44.6486C133.031 45.8893 133.581 46.4674 134.789 46.4674C135.115 46.4617 135.441 46.4387 135.765 46.3986V48.7392C135.222 48.8409 134.67 48.887 134.117 48.8767C131.191 48.8767 130.05 47.7751 130.05 44.9658V36.6627H127.949V34.308H130.05V30.8799H133.031Z" fill="white"/>
    <path d="M137.371 41.5518C137.371 36.9939 140.049 34.1299 144.225 34.1299C148.415 34.1299 151.08 36.9939 151.08 41.5518C151.08 46.1221 148.429 48.9736 144.225 48.9736C140.022 48.9736 137.371 46.1221 137.371 41.5518ZM148.058 41.5518C148.058 38.4252 146.628 36.5799 144.225 36.5799C141.821 36.5799 140.393 38.4393 140.393 41.5518C140.393 44.6908 141.821 46.5221 144.225 46.5221C146.628 46.5221 148.058 44.6908 148.058 41.5518Z" fill="white"/>
    <path d="M153.523 34.3074H156.353V36.773H156.421C156.613 36.003 157.063 35.3224 157.696 34.8458C158.329 34.3692 159.106 34.1256 159.897 34.1558C160.239 34.1546 160.58 34.1919 160.913 34.2668V37.048C160.482 36.9158 160.032 36.8552 159.581 36.8684C159.15 36.8508 158.72 36.927 158.321 37.0916C157.923 37.2562 157.564 37.5054 157.27 37.822C156.977 38.1386 156.755 38.5152 156.62 38.9259C156.485 39.3366 156.441 39.7716 156.49 40.2012V48.7933H153.523L153.523 34.3074Z" fill="white"/>
    <path d="M174.59 44.5393C174.191 47.1689 171.637 48.9736 168.368 48.9736C164.164 48.9736 161.555 46.1502 161.555 41.6205C161.555 37.0768 164.178 34.1299 168.243 34.1299C172.241 34.1299 174.756 36.883 174.756 41.2752V42.2939H164.549V42.4736C164.502 43.0067 164.568 43.5438 164.744 44.0492C164.92 44.5545 165.201 45.0166 165.569 45.4046C165.937 45.7927 166.383 46.0979 166.877 46.3C167.371 46.5021 167.903 46.5964 168.436 46.5767C169.137 46.6426 169.841 46.4798 170.442 46.1127C171.043 45.7456 171.51 45.1938 171.774 44.5392L174.59 44.5393ZM164.563 40.2158H171.788C171.814 39.7365 171.742 39.2568 171.575 38.8068C171.408 38.3569 171.15 37.9464 170.817 37.6012C170.484 37.256 170.084 36.9834 169.641 36.8007C169.198 36.618 168.722 36.5289 168.243 36.5393C167.76 36.5364 167.281 36.6294 166.834 36.813C166.387 36.9966 165.981 37.2671 165.639 37.6089C165.297 37.9507 165.026 38.3571 164.841 38.8045C164.656 39.2519 164.562 39.7316 164.563 40.2158Z" fill="white"/>
    <path d="M56.5469 18.7459C56.5469 15.6498 58.1898 13.7373 60.8365 13.7373C61.7904 13.69 62.7272 14.0039 63.461 14.6168C64.1947 15.2298 64.6717 16.0968 64.7972 17.0459H63.3242C63.2006 16.4835 62.8838 15.9824 62.429 15.6304C61.9743 15.2784 61.4106 15.0978 60.8365 15.1202C59.1266 15.1202 58.0573 16.5163 58.0573 18.7459C58.0573 20.9694 59.1266 22.3647 60.8427 22.3647C61.3959 22.4062 61.9461 22.2533 62.399 21.9322C62.8519 21.6111 63.179 21.1419 63.3242 20.6053H64.7972C64.6535 21.5318 64.1666 22.3699 63.4336 22.9524C62.7006 23.5348 61.7754 23.8188 60.8427 23.7475C58.1961 23.7475 56.5469 21.8358 56.5469 18.7459Z" fill="white"/>
    <path d="M66.4145 19.9115C66.3693 19.4381 66.4233 18.9604 66.5731 18.5091C66.7229 18.0577 66.9651 17.6428 67.2842 17.2908C67.6034 16.9389 67.9924 16.6576 68.4263 16.4652C68.8602 16.2727 69.3294 16.1733 69.8039 16.1733C70.2784 16.1733 70.7476 16.2727 71.1816 16.4652C71.6155 16.6576 72.0045 16.9389 72.3236 17.2908C72.6427 17.6428 72.885 18.0577 73.0347 18.5091C73.1845 18.9604 73.2386 19.4381 73.1934 19.9115C73.2394 20.3855 73.186 20.8639 73.0366 21.3159C72.8873 21.768 72.6452 22.1837 72.326 22.5363C72.0067 22.889 71.6175 23.1708 71.1831 23.3637C70.7488 23.5565 70.279 23.6561 69.8039 23.6561C69.3289 23.6561 68.8591 23.5565 68.4247 23.3637C67.9904 23.1708 67.6011 22.889 67.2819 22.5363C66.9627 22.1837 66.7206 21.768 66.5712 21.3159C66.4218 20.8639 66.3684 20.3855 66.4145 19.9115ZM71.7344 19.9115C71.7344 18.3498 71.0345 17.4366 69.8063 17.4366C68.5733 17.4366 67.8797 18.3498 67.8797 19.9116C67.8797 21.4858 68.5734 22.392 69.8063 22.392C71.0345 22.392 71.7344 21.4795 71.7344 19.9115Z" fill="white"/>
    <path d="M75.0977 16.3117H76.4631V17.4562H76.5691C76.7489 17.0451 77.0522 16.7006 77.4367 16.4705C77.8211 16.2404 78.2676 16.1363 78.7139 16.1726C79.0636 16.1463 79.4148 16.1991 79.7413 16.3273C80.0679 16.4554 80.3615 16.6556 80.6004 16.9129C80.8393 17.1703 81.0174 17.4782 81.1215 17.8139C81.2256 18.1497 81.253 18.5045 81.2016 18.8523V23.5163H79.7832V19.2094C79.7832 18.0515 79.2813 17.4758 78.2323 17.4758C77.9948 17.4647 77.7578 17.5052 77.5374 17.5945C77.3171 17.6838 77.1186 17.8199 76.9556 17.9933C76.7926 18.1667 76.6689 18.3734 76.5931 18.5992C76.5172 18.825 76.4909 19.0646 76.5161 19.3015V23.5164H75.0977V16.3117Z" fill="white"/>
    <path d="M86.0279 16.1733C87.6443 16.1733 88.7011 16.9272 88.8399 18.1976H87.4791C87.3482 17.6687 86.8322 17.3312 86.0279 17.3312C85.2361 17.3312 84.6345 17.7077 84.6345 18.2702C84.6345 18.7006 84.9977 18.9718 85.7771 19.1507L86.971 19.428C88.338 19.746 88.9786 20.3351 88.9786 21.3937C88.9786 22.7499 87.7177 23.6562 86.0014 23.6562C84.2915 23.6562 83.177 22.8819 83.0508 21.6054H84.4708C84.5932 21.9092 84.8138 22.163 85.0974 22.3261C85.3809 22.4891 85.7108 22.552 86.0342 22.5046C86.918 22.5046 87.5462 22.1078 87.5462 21.5319C87.5462 21.1022 87.2095 20.8241 86.4894 20.6522L85.2362 20.3608C83.8692 20.0366 83.2363 19.4218 83.2363 18.3499C83.2363 17.0726 84.4038 16.1733 86.0279 16.1733Z" fill="white"/>
    <path d="M90.7656 15.1068L92.4226 12.8311H94.0857L92.2308 15.1068H90.7656ZM90.9122 16.3115H92.3244V23.5162H90.9122V16.3115Z" fill="white"/>
    <path d="M94.5298 24.2373H95.981C96.101 24.7599 96.7011 25.0974 97.6582 25.0974C98.8397 25.0974 99.5395 24.5349 99.5395 23.5826V22.1998H99.4335C99.211 22.5868 98.8861 22.9047 98.4947 23.1183C98.1033 23.3319 97.6605 23.4328 97.2155 23.4099C95.3808 23.4099 94.2461 21.988 94.2461 19.831C94.2461 17.6342 95.3933 16.1919 97.2295 16.1919C97.6857 16.176 98.1375 16.2861 98.5356 16.5101C98.9336 16.7341 99.2626 17.0635 99.4865 17.4623H99.5987V16.3115H100.958V23.5755C100.958 25.2231 99.6704 26.2685 97.6379 26.2685C95.8422 26.2686 94.681 25.4615 94.5298 24.2373ZM99.566 19.824C99.566 18.3888 98.8256 17.4693 97.6176 17.4693C96.3971 17.4693 95.7113 18.3888 95.7113 19.824C95.7113 21.2599 96.3971 22.1794 97.6176 22.1794C98.8334 22.1794 99.566 21.267 99.566 19.824Z" fill="white"/>
    <path d="M109.279 23.5162H107.912V22.3717H107.8C107.618 22.787 107.311 23.1345 106.921 23.3649C106.531 23.5953 106.079 23.6969 105.629 23.6553C105.281 23.68 104.932 23.6264 104.608 23.4984C104.284 23.3704 103.992 23.1712 103.755 22.9155C103.517 22.6598 103.34 22.354 103.236 22.0206C103.131 21.6872 103.103 21.3347 103.153 20.9889V16.3115H104.573V20.6185C104.573 21.7826 105.041 22.3389 106.084 22.3389C106.326 22.3619 106.569 22.3305 106.797 22.247C107.026 22.1635 107.232 22.03 107.402 21.8562C107.573 21.6825 107.702 21.4729 107.781 21.2427C107.86 21.0125 107.887 20.7675 107.859 20.5256V16.3115H109.279V23.5162Z" fill="white"/>
    <path d="M117.614 21.5704C117.421 22.2289 117.003 22.7985 116.434 23.1795C115.865 23.5606 115.18 23.7288 114.499 23.6548C114.026 23.6673 113.555 23.5764 113.12 23.3884C112.685 23.2003 112.296 22.9197 111.98 22.5658C111.664 22.212 111.429 21.7935 111.291 21.3394C111.152 20.8853 111.114 20.4064 111.179 19.9361C111.116 19.4642 111.155 18.9844 111.293 18.5289C111.431 18.0734 111.665 17.653 111.979 17.2961C112.293 16.9391 112.68 16.6541 113.114 16.4601C113.548 16.2662 114.018 16.1679 114.493 16.172C116.493 16.172 117.699 17.5416 117.699 19.804V20.3002H112.624V20.3798C112.602 20.6442 112.635 20.9104 112.721 21.1612C112.808 21.412 112.945 21.6419 113.126 21.8362C113.306 22.0306 113.525 22.185 113.768 22.2896C114.011 22.3943 114.273 22.4468 114.538 22.4438C114.877 22.4847 115.221 22.4234 115.526 22.2679C115.83 22.1124 116.082 21.8696 116.248 21.5704L117.614 21.5704ZM112.624 19.2486H116.254C116.272 19.0068 116.239 18.7639 116.158 18.5355C116.077 18.3072 115.949 18.0984 115.782 17.9227C115.615 17.7469 115.414 17.608 115.191 17.5149C114.967 17.4218 114.727 17.3766 114.485 17.3822C114.24 17.3791 113.996 17.4252 113.769 17.518C113.542 17.6107 113.335 17.748 113.162 17.922C112.988 18.0959 112.852 18.3029 112.759 18.5307C112.667 18.7586 112.621 19.0027 112.624 19.2486Z" fill="white"/>
    <path d="M119.672 13.499H121.09V23.5162H119.672V13.499Z" fill="white"/>
    <path d="M123.063 19.9115C123.018 19.4381 123.072 18.9604 123.222 18.5091C123.371 18.0577 123.614 17.6428 123.933 17.2908C124.252 16.9389 124.641 16.6576 125.075 16.4652C125.509 16.2727 125.978 16.1733 126.452 16.1733C126.927 16.1733 127.396 16.2727 127.83 16.4652C128.264 16.6576 128.653 16.9389 128.972 17.2908C129.291 17.6428 129.533 18.0577 129.683 18.5091C129.833 18.9604 129.887 19.4381 129.842 19.9115C129.888 20.3855 129.834 20.8639 129.685 21.3159C129.536 21.768 129.294 22.1837 128.974 22.5363C128.655 22.889 128.266 23.1708 127.832 23.3637C127.397 23.5565 126.927 23.6561 126.452 23.6561C125.977 23.6561 125.508 23.5565 125.073 23.3637C124.639 23.1708 124.25 22.889 123.93 22.5363C123.611 22.1837 123.369 21.768 123.22 21.3159C123.07 20.8639 123.017 20.3855 123.063 19.9115ZM128.383 19.9115C128.383 18.3498 127.683 17.4366 126.455 17.4366C125.222 17.4366 124.528 18.3498 124.528 19.9116C124.528 21.4858 125.222 22.392 126.455 22.392C127.683 22.392 128.383 21.4795 128.383 19.9115Z" fill="white"/>
    <path d="M141.723 21.5704C141.53 22.2289 141.113 22.7985 140.543 23.1795C139.974 23.5606 139.289 23.7288 138.609 23.6548C138.135 23.6673 137.664 23.5764 137.23 23.3884C136.795 23.2003 136.406 22.9197 136.09 22.5658C135.774 22.212 135.539 21.7935 135.4 21.3394C135.262 20.8853 135.224 20.4064 135.288 19.9361C135.225 19.4642 135.264 18.9844 135.402 18.5289C135.54 18.0734 135.774 17.653 136.089 17.2961C136.403 16.9391 136.79 16.6541 137.224 16.4601C137.657 16.2662 138.127 16.1679 138.602 16.172C140.602 16.172 141.809 17.5416 141.809 19.804V20.3002H136.733V20.3798C136.711 20.6442 136.744 20.9104 136.831 21.1612C136.917 21.412 137.055 21.6419 137.235 21.8362C137.415 22.0306 137.634 22.185 137.877 22.2896C138.121 22.3943 138.383 22.4468 138.648 22.4438C138.987 22.4847 139.331 22.4234 139.635 22.2679C139.94 22.1124 140.191 21.8696 140.357 21.5704L141.723 21.5704ZM136.733 19.2486H140.364C140.382 19.0068 140.349 18.7639 140.268 18.5355C140.186 18.3072 140.058 18.0984 139.891 17.9227C139.725 17.7469 139.523 17.608 139.3 17.5149C139.077 17.4218 138.836 17.3766 138.595 17.3822C138.349 17.3791 138.106 17.4252 137.879 17.5179C137.651 17.6106 137.445 17.748 137.271 17.922C137.098 18.0959 136.961 18.3029 136.869 18.5307C136.776 18.7586 136.73 19.0026 136.733 19.2486Z" fill="white"/>
    <path d="M143.715 16.3114H145.08V17.456H145.186C145.366 17.0449 145.669 16.7003 146.054 16.4702C146.438 16.2401 146.885 16.136 147.331 16.1724C147.681 16.146 148.032 16.1989 148.359 16.327C148.685 16.4552 148.979 16.6553 149.218 16.9127C149.457 17.17 149.635 17.478 149.739 17.8137C149.843 18.1494 149.87 18.5043 149.819 18.8521V23.5161H148.4V19.2091C148.4 18.0513 147.898 17.4755 146.849 17.4755C146.612 17.4644 146.375 17.5049 146.155 17.5943C145.934 17.6836 145.736 17.8196 145.573 17.993C145.41 18.1665 145.286 18.3732 145.21 18.599C145.134 18.8248 145.108 19.0644 145.133 19.3013V23.5161H143.715V16.3114Z" fill="white"/>
    <path d="M161.989 21.5704C161.796 22.2289 161.378 22.7985 160.809 23.1795C160.24 23.5606 159.555 23.7288 158.874 23.6548C158.401 23.6673 157.93 23.5764 157.495 23.3884C157.06 23.2003 156.671 22.9197 156.355 22.5658C156.04 22.212 155.804 21.7935 155.666 21.3394C155.527 20.8853 155.489 20.4064 155.554 19.9361C155.491 19.4642 155.53 18.9844 155.668 18.5289C155.806 18.0734 156.04 17.653 156.354 17.2961C156.668 16.9391 157.056 16.6541 157.489 16.4601C157.923 16.2662 158.393 16.1679 158.868 16.172C160.868 16.172 162.074 17.5416 162.074 19.804V20.3002H156.999V20.3798C156.977 20.6442 157.01 20.9104 157.096 21.1612C157.183 21.412 157.32 21.6419 157.501 21.8362C157.681 22.0306 157.9 22.185 158.143 22.2896C158.386 22.3943 158.648 22.4468 158.913 22.4438C159.252 22.4847 159.596 22.4234 159.901 22.2679C160.205 22.1124 160.457 21.8696 160.623 21.5704L161.989 21.5704ZM156.999 19.2486H160.629C160.647 19.0068 160.614 18.7639 160.533 18.5355C160.452 18.3072 160.324 18.0984 160.157 17.9227C159.99 17.7469 159.789 17.608 159.566 17.5149C159.342 17.4218 159.102 17.3766 158.86 17.3822C158.615 17.3791 158.371 17.4253 158.144 17.518C157.917 17.6107 157.71 17.7481 157.537 17.922C157.364 18.0959 157.227 18.3029 157.134 18.5308C157.042 18.7586 156.996 19.0027 156.999 19.2486Z" fill="white"/>
    <path d="M164.043 13.499H165.461V23.5162H164.043V13.499Z" fill="white"/>
  </g>
  <defs>
    <clipPath id="clip0_21667_14059">
      <rect width="191" height="64" fill="white"/>
    </clipPath>
  </defs>
</svg>
