<svg width="1199" height="242" viewBox="0 0 1199 242" fill="none" xmlns="http://www.w3.org/2000/svg">
<path d="M1175.44 154.608C1170.5 154.587 1166.28 153.285 1162.78 150.702C1159.28 148.118 1156.6 144.358 1154.75 139.42C1152.9 134.483 1151.97 128.535 1151.97 121.577C1151.97 114.639 1152.9 108.712 1154.75 103.795C1156.63 98.8789 1159.31 95.1289 1162.81 92.5449C1166.33 89.9619 1170.54 88.6699 1175.44 88.6699C1180.33 88.6699 1184.53 89.9719 1188.03 92.5769C1191.53 95.1599 1194.21 98.9099 1196.06 103.827C1197.94 108.722 1198.87 114.639 1198.87 121.577C1198.87 128.556 1197.95 134.514 1196.09 139.452C1194.24 144.368 1191.56 148.129 1188.06 150.733C1184.56 153.316 1180.35 154.608 1175.44 154.608ZM1175.44 146.264C1179.77 146.264 1183.16 144.15 1185.59 139.92C1188.05 135.691 1189.28 129.577 1189.28 121.577C1189.28 116.264 1188.72 111.775 1187.59 108.108C1186.49 104.42 1184.9 101.629 1182.81 99.7329C1180.75 97.8159 1178.29 96.8579 1175.44 96.8579C1171.13 96.8579 1167.74 98.9829 1165.28 103.233C1162.82 107.483 1161.58 113.597 1161.56 121.577C1161.56 126.91 1162.11 131.42 1163.22 135.108C1164.34 138.775 1165.94 141.556 1168 143.452C1170.06 145.327 1172.54 146.264 1175.44 146.264Z" fill="#1E1E1E"/>
<path d="M43.2813 154.42C39.3646 154.42 35.8438 153.67 32.7188 152.17C29.6146 150.65 27.1354 148.566 25.2812 145.92C23.4271 143.275 22.4375 140.254 22.3125 136.858H31.6875C31.9167 139.608 33.1354 141.868 35.3438 143.639C37.5521 145.41 40.1979 146.295 43.2813 146.295C45.7396 146.295 47.9167 145.733 49.8125 144.608C51.7292 143.462 53.2292 141.889 54.3125 139.889C55.4167 137.889 55.9688 135.608 55.9688 133.045C55.9688 130.441 55.4063 128.118 54.2813 126.077C53.1563 124.035 51.6042 122.431 49.625 121.264C47.6667 120.097 45.4167 119.504 42.875 119.483C40.9375 119.483 38.9896 119.816 37.0313 120.483C35.0729 121.15 33.4896 122.025 32.2812 123.108L23.4375 121.795L27.0313 89.5449H62.2187V97.8269H35.0625L33.0313 115.733H33.4063C34.6563 114.525 36.3125 113.514 38.375 112.702C40.4583 111.889 42.6875 111.483 45.0625 111.483C48.9583 111.483 52.4271 112.41 55.4688 114.264C58.5313 116.118 60.9375 118.65 62.6875 121.858C64.4583 125.045 65.3333 128.712 65.3125 132.858C65.3333 137.004 64.3958 140.702 62.5 143.952C60.625 147.202 58.0208 149.764 54.6875 151.639C51.375 153.493 47.5729 154.42 43.2813 154.42ZM98.0398 154.608C93.1023 154.587 88.8836 153.285 85.3836 150.702C81.8836 148.118 79.2065 144.358 77.3523 139.42C75.4981 134.483 74.5711 128.535 74.5711 121.577C74.5711 114.639 75.4981 108.712 77.3523 103.795C79.2273 98.8789 81.9148 95.1289 85.4148 92.5449C88.9356 89.9619 93.144 88.6699 98.0398 88.6699C102.936 88.6699 107.134 89.9719 110.634 92.5769C114.134 95.1599 116.811 98.9099 118.665 103.827C120.54 108.722 121.477 114.639 121.477 121.577C121.477 128.556 120.55 134.514 118.696 139.452C116.842 144.368 114.165 148.129 110.665 150.733C107.165 153.316 102.956 154.608 98.0398 154.608ZM98.0398 146.264C102.373 146.264 105.759 144.15 108.196 139.92C110.654 135.691 111.884 129.577 111.884 121.577C111.884 116.264 111.321 111.775 110.196 108.108C109.092 104.42 107.498 101.629 105.415 99.7329C103.352 97.8159 100.894 96.8579 98.0398 96.8579C93.7273 96.8579 90.3419 98.9829 87.8836 103.233C85.4252 107.483 84.1856 113.597 84.1648 121.577C84.1648 126.91 84.7169 131.42 85.8211 135.108C86.9461 138.775 88.5398 141.556 90.6023 143.452C92.6648 145.327 95.144 146.264 98.0398 146.264ZM153.939 154.42C151.085 154.379 148.272 153.858 145.502 152.858C142.752 151.858 140.252 150.191 138.002 147.858C135.752 145.525 133.949 142.389 132.595 138.452C131.262 134.514 130.595 129.597 130.595 123.702C130.595 118.118 131.147 113.16 132.252 108.827C133.377 104.493 134.991 100.837 137.095 97.8579C139.199 94.8579 141.741 92.5769 144.72 91.0139C147.699 89.4519 151.043 88.6699 154.752 88.6699C158.564 88.6699 161.949 89.4199 164.908 90.9199C167.866 92.4199 170.262 94.4929 172.095 97.1389C173.949 99.7849 175.127 102.795 175.627 106.17H166.095C165.449 103.504 164.168 101.327 162.252 99.6389C160.335 97.9519 157.835 97.1079 154.752 97.1079C150.064 97.1079 146.408 99.1499 143.783 103.233C141.179 107.316 139.866 112.993 139.845 120.264H140.314C141.418 118.452 142.772 116.91 144.377 115.639C146.002 114.347 147.814 113.358 149.814 112.67C151.835 111.962 153.96 111.608 156.189 111.608C159.897 111.608 163.252 112.514 166.252 114.327C169.272 116.118 171.679 118.597 173.47 121.764C175.262 124.931 176.158 128.556 176.158 132.639C176.158 136.722 175.231 140.42 173.377 143.733C171.543 147.045 168.96 149.67 165.627 151.608C162.293 153.525 158.397 154.462 153.939 154.42ZM153.908 146.295C156.366 146.295 158.564 145.691 160.502 144.483C162.439 143.275 163.97 141.65 165.095 139.608C166.22 137.566 166.783 135.285 166.783 132.764C166.783 130.306 166.231 128.066 165.127 126.045C164.043 124.025 162.543 122.42 160.627 121.233C158.731 120.045 156.564 119.452 154.127 119.452C152.272 119.452 150.554 119.806 148.97 120.514C147.408 121.222 146.033 122.202 144.845 123.452C143.658 124.702 142.72 126.139 142.033 127.764C141.366 129.368 141.033 131.066 141.033 132.858C141.033 135.254 141.585 137.472 142.689 139.514C143.814 141.556 145.345 143.202 147.283 144.452C149.241 145.681 151.449 146.295 153.908 146.295ZM208.854 154.608C203.916 154.587 199.698 153.285 196.198 150.702C192.698 148.118 190.02 144.358 188.166 139.42C186.312 134.483 185.385 128.535 185.385 121.577C185.385 114.639 186.312 108.712 188.166 103.795C190.041 98.8789 192.729 95.1289 196.229 92.5449C199.75 89.9619 203.958 88.6699 208.854 88.6699C213.75 88.6699 217.948 89.9719 221.448 92.5769C224.948 95.1599 227.625 98.9099 229.479 103.827C231.354 108.722 232.291 114.639 232.291 121.577C232.291 128.556 231.364 134.514 229.51 139.452C227.656 144.368 224.979 148.129 221.479 150.733C217.979 153.316 213.77 154.608 208.854 154.608ZM208.854 146.264C213.187 146.264 216.573 144.15 219.01 139.92C221.468 135.691 222.698 129.577 222.698 121.577C222.698 116.264 222.135 111.775 221.01 108.108C219.906 104.42 218.312 101.629 216.229 99.7329C214.166 97.8159 211.708 96.8579 208.854 96.8579C204.541 96.8579 201.156 98.9829 198.698 103.233C196.239 107.483 195 113.597 194.979 121.577C194.979 126.91 195.531 131.42 196.635 135.108C197.76 138.775 199.354 141.556 201.416 143.452C203.479 145.327 205.958 146.264 208.854 146.264ZM266.691 89.5449V153.545H257.003V99.2329H256.628L241.316 109.233V99.9829L257.284 89.5449H266.691ZM305.316 154.608C300.379 154.587 296.16 153.285 292.66 150.702C289.16 148.118 286.483 144.358 284.629 139.42C282.775 134.483 281.848 128.535 281.848 121.577C281.848 114.639 282.775 108.712 284.629 103.795C286.504 98.8789 289.191 95.1289 292.691 92.5449C296.212 89.9619 300.42 88.6699 305.316 88.6699C310.212 88.6699 314.41 89.9719 317.91 92.5769C321.41 95.1599 324.087 98.9099 325.941 103.827C327.816 108.722 328.754 114.639 328.754 121.577C328.754 128.556 327.827 134.514 325.973 139.452C324.118 144.368 321.441 148.129 317.941 150.733C314.441 153.316 310.233 154.608 305.316 154.608ZM305.316 146.264C309.65 146.264 313.035 144.15 315.473 139.92C317.931 135.691 319.16 129.577 319.16 121.577C319.16 116.264 318.598 111.775 317.473 108.108C316.368 104.42 314.775 101.629 312.691 99.7329C310.629 97.8159 308.17 96.8579 305.316 96.8579C301.004 96.8579 297.618 98.9829 295.16 103.233C292.702 107.483 291.462 113.597 291.441 121.577C291.441 126.91 291.993 131.42 293.098 135.108C294.223 138.775 295.816 141.556 297.879 143.452C299.941 145.327 302.42 146.264 305.316 146.264ZM363.153 89.5449V153.545H353.465V99.2329H353.09L337.778 109.233V99.9829L353.747 89.5449H363.153ZM401.779 154.608C396.841 154.587 392.622 153.285 389.122 150.702C385.622 148.118 382.945 144.358 381.091 139.42C379.237 134.483 378.31 128.535 378.31 121.577C378.31 114.639 379.237 108.712 381.091 103.795C382.966 98.8789 385.654 95.1289 389.154 92.5449C392.675 89.9619 396.883 88.6699 401.779 88.6699C406.675 88.6699 410.872 89.9719 414.372 92.5769C417.872 95.1599 420.55 98.9099 422.404 103.827C424.279 108.722 425.216 114.639 425.216 121.577C425.216 128.556 424.289 134.514 422.435 139.452C420.581 144.368 417.904 148.129 414.404 150.733C410.904 153.316 406.695 154.608 401.779 154.608ZM401.779 146.264C406.112 146.264 409.497 144.15 411.935 139.92C414.393 135.691 415.622 129.577 415.622 121.577C415.622 116.264 415.06 111.775 413.935 108.108C412.831 104.42 411.237 101.629 409.154 99.7329C407.091 97.8159 404.633 96.8579 401.779 96.8579C397.466 96.8579 394.081 98.9829 391.622 103.233C389.164 107.483 387.925 113.597 387.904 121.577C387.904 126.91 388.456 131.42 389.56 135.108C390.685 138.775 392.279 141.556 394.341 143.452C396.404 145.327 398.883 146.264 401.779 146.264ZM435.334 153.545V146.545L456.99 124.108C459.303 121.67 461.209 119.535 462.709 117.702C464.23 115.847 465.365 114.087 466.115 112.42C466.865 110.754 467.24 108.983 467.24 107.108C467.24 104.983 466.74 103.15 465.74 101.608C464.74 100.045 463.376 98.8469 461.647 98.0139C459.917 97.1599 457.97 96.7329 455.803 96.7329C453.511 96.7329 451.511 97.2019 449.803 98.1389C448.095 99.0769 446.782 100.4 445.865 102.108C444.949 103.816 444.49 105.816 444.49 108.108H435.272C435.272 104.212 436.167 100.806 437.959 97.8889C439.751 94.9719 442.209 92.7119 445.334 91.1079C448.459 89.4829 452.011 88.6699 455.99 88.6699C460.011 88.6699 463.553 89.4719 466.615 91.0769C469.699 92.6599 472.105 94.8269 473.834 97.5769C475.563 100.306 476.428 103.389 476.428 106.827C476.428 109.202 475.98 111.525 475.084 113.795C474.209 116.066 472.678 118.597 470.49 121.389C468.303 124.16 465.261 127.525 461.365 131.483L448.647 144.795V145.264H477.459V153.545H435.334Z" fill="#1E1E1E"/>
<path d="M2 121.545V81.5454C2 68.2906 12.7452 57.5454 26 57.5454H474C487.255 57.5454 498 68.2906 498 81.5454V121.545" stroke="#F69420" stroke-width="3" stroke-miterlimit="0" stroke-linecap="round" stroke-linejoin="bevel"/>
<path d="M138.614 31.0001H129.196V1.90918H138.912C141.762 1.90918 144.21 2.49159 146.256 3.65629C148.301 4.81169 149.868 6.47359 150.957 8.64209C152.056 10.8012 152.605 13.3912 152.605 16.412C152.605 19.4423 152.051 22.0465 150.943 24.2245C149.845 26.4026 148.254 28.0787 146.17 29.2529C144.087 30.4177 141.568 31.0001 138.614 31.0001ZM133.585 27.1649H138.372C140.588 27.1649 142.43 26.7482 143.898 25.9149C145.366 25.0721 146.464 23.8552 147.193 22.2643C147.922 20.6639 148.287 18.7132 148.287 16.412C148.287 14.1298 147.922 12.1933 147.193 10.6024C146.473 9.01149 145.399 7.80409 143.969 6.98019C142.539 6.15629 140.763 5.74439 138.642 5.74439H133.585V27.1649ZM166.686 31.4404C164.536 31.4404 162.685 30.9812 161.132 30.0626C159.588 29.1346 158.395 27.8325 157.552 26.1563C156.719 24.4707 156.302 22.4963 156.302 20.2331C156.302 17.9982 156.719 16.0285 157.552 14.324C158.395 12.6194 159.569 11.2889 161.075 10.3325C162.59 9.37598 164.361 8.89778 166.387 8.89778C167.618 8.89778 168.812 9.10138 169.967 9.50858C171.122 9.91578 172.159 10.555 173.078 11.4262C173.996 12.2974 174.721 13.4291 175.251 14.8211C175.781 16.2037 176.047 17.8846 176.047 19.8637V21.3694H158.703V18.1876H171.885C171.885 17.0702 171.657 16.0806 171.203 15.2189C170.748 14.3476 170.109 13.6611 169.285 13.1592C168.471 12.6573 167.514 12.4063 166.416 12.4063C165.223 12.4063 164.181 12.6999 163.291 13.287C162.41 13.8647 161.728 14.6223 161.245 15.5598C160.772 16.4878 160.535 17.4963 160.535 18.5853V21.0711C160.535 22.5295 160.791 23.77 161.302 24.7927C161.823 25.8154 162.547 26.5967 163.475 27.1365C164.404 27.6668 165.488 27.9319 166.728 27.9319C167.533 27.9319 168.267 27.8183 168.93 27.591C169.593 27.3543 170.166 27.0039 170.649 26.5399C171.132 26.0759 171.501 25.5029 171.757 24.8211L175.777 25.5456C175.455 26.7293 174.877 27.7662 174.044 28.6563C173.22 29.537 172.183 30.2236 170.933 30.716C169.692 31.199 168.277 31.4404 166.686 31.4404ZM180.319 39.1819V9.18189H184.467V12.7189H184.822C185.068 12.2643 185.423 11.7387 185.887 11.1421C186.351 10.5456 186.995 10.0247 187.819 9.57959C188.643 9.12509 189.732 8.89778 191.086 8.89778C192.847 8.89778 194.419 9.34288 195.802 10.2331C197.184 11.1232 198.269 12.4063 199.055 14.0825C199.85 15.7586 200.248 17.7757 200.248 20.1336C200.248 22.4916 199.855 24.5134 199.069 26.199C198.283 27.8751 197.203 29.1677 195.83 30.0768C194.457 30.9764 192.89 31.4262 191.129 31.4262C189.803 31.4262 188.718 31.2037 187.876 30.7586C187.042 30.3135 186.389 29.7927 185.915 29.1961C185.442 28.5995 185.077 28.0692 184.822 27.6052H184.566V39.1819H180.319ZM184.481 20.091C184.481 21.6251 184.703 22.9698 185.148 24.1251C185.593 25.2804 186.237 26.1848 187.08 26.8382C187.923 27.4821 188.955 27.8041 190.177 27.8041C191.446 27.8041 192.506 27.4679 193.359 26.7956C194.211 26.1137 194.855 25.1904 195.29 24.0257C195.736 22.8609 195.958 21.5493 195.958 20.091C195.958 18.6516 195.74 17.359 195.305 16.2132C194.879 15.0673 194.235 14.163 193.373 13.5001C192.521 12.8372 191.455 12.5058 190.177 12.5058C188.946 12.5058 187.904 12.823 187.052 13.4575C186.209 14.092 185.57 14.9774 185.134 16.1137C184.699 17.2501 184.481 18.5759 184.481 20.091ZM213.97 31.4404C211.82 31.4404 209.969 30.9812 208.416 30.0626C206.872 29.1346 205.679 27.8325 204.836 26.1563C204.003 24.4707 203.586 22.4963 203.586 20.2331C203.586 17.9982 204.003 16.0285 204.836 14.324C205.679 12.6194 206.853 11.2889 208.359 10.3325C209.874 9.37598 211.645 8.89778 213.671 8.89778C214.903 8.89778 216.096 9.10138 217.251 9.50858C218.406 9.91578 219.443 10.555 220.362 11.4262C221.28 12.2974 222.005 13.4291 222.535 14.8211C223.065 16.2037 223.331 17.8846 223.331 19.8637V21.3694H205.987V18.1876H219.169C219.169 17.0702 218.941 16.0806 218.487 15.2189C218.032 14.3476 217.393 13.6611 216.569 13.1592C215.755 12.6573 214.798 12.4063 213.7 12.4063C212.507 12.4063 211.465 12.6999 210.575 13.287C209.694 13.8647 209.012 14.6223 208.529 15.5598C208.056 16.4878 207.819 17.4963 207.819 18.5853V21.0711C207.819 22.5295 208.075 23.77 208.586 24.7927C209.107 25.8154 209.832 26.5967 210.76 27.1365C211.688 27.6668 212.772 27.9319 214.012 27.9319C214.817 27.9319 215.551 27.8183 216.214 27.591C216.877 27.3543 217.45 27.0039 217.933 26.5399C218.416 26.0759 218.785 25.5029 219.041 24.8211L223.061 25.5456C222.739 26.7293 222.161 27.7662 221.328 28.6563C220.504 29.537 219.467 30.2236 218.217 30.716C216.976 31.199 215.561 31.4404 213.97 31.4404ZM231.85 18.0456V31.0001H227.603V9.18189H231.68V12.7331H231.95C232.451 11.5778 233.237 10.6497 234.307 9.94899C235.387 9.24819 236.746 8.89778 238.384 8.89778C239.871 8.89778 241.173 9.21028 242.29 9.83528C243.408 10.4509 244.274 11.3694 244.89 12.591C245.505 13.8126 245.813 15.323 245.813 17.1223V31.0001H241.566V17.6336C241.566 16.0522 241.154 14.8164 240.33 13.9262C239.506 13.0266 238.375 12.5768 236.935 12.5768C235.95 12.5768 235.075 12.7899 234.307 13.216C233.55 13.6421 232.949 14.2671 232.503 15.091C232.068 15.9054 231.85 16.8903 231.85 18.0456ZM259.237 31.4262C257.475 31.4262 255.903 30.9764 254.521 30.0768C253.148 29.1677 252.068 27.8751 251.282 26.199C250.506 24.5134 250.117 22.4916 250.117 20.1336C250.117 17.7757 250.51 15.7586 251.296 14.0825C252.092 12.4063 253.181 11.1232 254.563 10.2331C255.946 9.34288 257.513 8.89778 259.265 8.89778C260.619 8.89778 261.708 9.12509 262.532 9.57959C263.366 10.0247 264.01 10.5456 264.464 11.1421C264.928 11.7387 265.288 12.2643 265.544 12.7189H265.799V1.90918H270.046V31.0001H265.899V27.6052H265.544C265.288 28.0692 264.919 28.5995 264.436 29.1961C263.962 29.7927 263.309 30.3135 262.475 30.7586C261.642 31.2037 260.563 31.4262 259.237 31.4262ZM260.174 27.8041C261.396 27.8041 262.428 27.4821 263.271 26.8382C264.123 26.1848 264.767 25.2804 265.203 24.1251C265.648 22.9698 265.87 21.6251 265.87 20.091C265.87 18.5759 265.653 17.2501 265.217 16.1137C264.781 14.9774 264.142 14.092 263.299 13.4575C262.456 12.823 261.415 12.5058 260.174 12.5058C258.896 12.5058 257.831 12.8372 256.978 13.5001C256.126 14.163 255.482 15.0673 255.046 16.2132C254.62 17.359 254.407 18.6516 254.407 20.091C254.407 21.5493 254.625 22.8609 255.061 24.0257C255.496 25.1904 256.14 26.1137 256.992 26.7956C257.854 27.4679 258.915 27.8041 260.174 27.8041ZM285.072 31.4404C282.922 31.4404 281.071 30.9812 279.518 30.0626C277.974 29.1346 276.781 27.8325 275.938 26.1563C275.105 24.4707 274.688 22.4963 274.688 20.2331C274.688 17.9982 275.105 16.0285 275.938 14.324C276.781 12.6194 277.955 11.2889 279.461 10.3325C280.976 9.37598 282.747 8.89778 284.773 8.89778C286.004 8.89778 287.198 9.10138 288.353 9.50858C289.508 9.91578 290.545 10.555 291.464 11.4262C292.382 12.2974 293.107 13.4291 293.637 14.8211C294.167 16.2037 294.432 17.8846 294.432 19.8637V21.3694H277.089V18.1876H290.271C290.271 17.0702 290.043 16.0806 289.589 15.2189C289.134 14.3476 288.495 13.6611 287.671 13.1592C286.857 12.6573 285.9 12.4063 284.802 12.4063C283.609 12.4063 282.567 12.6999 281.677 13.287C280.796 13.8647 280.114 14.6223 279.631 15.5598C279.158 16.4878 278.921 17.4963 278.921 18.5853V21.0711C278.921 22.5295 279.177 23.77 279.688 24.7927C280.209 25.8154 280.933 26.5967 281.861 27.1365C282.789 27.6668 283.874 27.9319 285.114 27.9319C285.919 27.9319 286.653 27.8183 287.316 27.591C287.979 27.3543 288.552 27.0039 289.035 26.5399C289.518 26.0759 289.887 25.5029 290.143 24.8211L294.163 25.5456C293.841 26.7293 293.263 27.7662 292.43 28.6563C291.606 29.537 290.569 30.2236 289.319 30.716C288.078 31.199 286.663 31.4404 285.072 31.4404ZM302.952 18.0456V31.0001H298.705V9.18189H302.782V12.7331H303.051C303.553 11.5778 304.339 10.6497 305.409 9.94899C306.489 9.24819 307.848 8.89778 309.486 8.89778C310.973 8.89778 312.275 9.21028 313.392 9.83528C314.51 10.4509 315.376 11.3694 315.992 12.591C316.607 13.8126 316.915 15.323 316.915 17.1223V31.0001H312.668V17.6336C312.668 16.0522 312.256 14.8164 311.432 13.9262C310.608 13.0266 309.477 12.5768 308.037 12.5768C307.052 12.5768 306.176 12.7899 305.409 13.216C304.652 13.6421 304.05 14.2671 303.605 15.091C303.17 15.9054 302.952 16.8903 302.952 18.0456ZM331.361 31.4404C329.25 31.4404 327.431 30.9622 325.907 30.0058C324.392 29.0399 323.227 27.7094 322.413 26.0143C321.598 24.3192 321.191 22.3779 321.191 20.1904C321.191 17.9745 321.608 16.019 322.441 14.324C323.274 12.6194 324.449 11.2889 325.964 10.3325C327.479 9.37598 329.264 8.89778 331.319 8.89778C332.976 8.89778 334.453 9.20558 335.751 9.82108C337.048 10.4272 338.094 11.2795 338.89 12.3779C339.695 13.4764 340.173 14.7596 340.324 16.2274H336.191C335.964 15.2046 335.443 14.324 334.628 13.5853C333.824 12.8467 332.744 12.4774 331.39 12.4774C330.206 12.4774 329.169 12.7899 328.279 13.4149C327.398 14.0304 326.712 14.9111 326.219 16.0569C325.727 17.1933 325.481 18.538 325.481 20.091C325.481 21.6819 325.722 23.055 326.205 24.2103C326.688 25.3656 327.37 26.2605 328.251 26.895C329.141 27.5295 330.187 27.8467 331.39 27.8467C332.195 27.8467 332.924 27.6999 333.577 27.4063C334.24 27.1033 334.794 26.6724 335.239 26.1137C335.694 25.555 336.011 24.8827 336.191 24.0967H340.324C340.173 25.5077 339.714 26.7671 338.947 27.8751C338.18 28.9831 337.152 29.8543 335.864 30.4887C334.586 31.1232 333.085 31.4404 331.361 31.4404ZM344.426 31.0001V9.18189H348.674V31.0001H344.426ZM346.571 5.81538C345.833 5.81538 345.198 5.56919 344.668 5.07679C344.147 4.57489 343.887 3.97828 343.887 3.28698C343.887 2.58628 344.147 1.98968 344.668 1.49728C345.198 0.995385 345.833 0.744385 346.571 0.744385C347.31 0.744385 347.94 0.995385 348.46 1.49728C348.991 1.98968 349.256 2.58628 349.256 3.28698C349.256 3.97828 348.991 4.57489 348.46 5.07679C347.94 5.56919 347.31 5.81538 346.571 5.81538ZM360.297 31.4831C358.914 31.4831 357.664 31.2274 356.547 30.716C355.429 30.1952 354.544 29.4423 353.89 28.4575C353.247 27.4726 352.925 26.2653 352.925 24.8353C352.925 23.6043 353.161 22.591 353.635 21.7956C354.108 21.0001 354.747 20.3704 355.552 19.9063C356.357 19.4423 357.257 19.092 358.251 18.8552C359.246 18.6185 360.259 18.4385 361.291 18.3154C362.598 18.1639 363.658 18.0408 364.473 17.9461C365.287 17.842 365.879 17.6762 366.248 17.449C366.618 17.2217 366.802 16.8524 366.802 16.341V16.2416C366.802 15.001 366.452 14.0399 365.751 13.3581C365.06 12.6762 364.028 12.3353 362.655 12.3353C361.225 12.3353 360.098 12.6526 359.274 13.287C358.46 13.912 357.896 14.6081 357.584 15.3751L353.592 14.466C354.066 13.1403 354.757 12.0702 355.666 11.2558C356.585 10.4319 357.64 9.83529 358.834 9.46599C360.027 9.08719 361.282 8.89778 362.598 8.89778C363.469 8.89778 364.392 9.00198 365.368 9.21028C366.353 9.40918 367.271 9.77848 368.123 10.3183C368.985 10.8581 369.691 11.6298 370.24 12.6336C370.789 13.6279 371.064 14.9206 371.064 16.5115V31.0001H366.916V28.0171H366.746C366.471 28.5664 366.059 29.1062 365.51 29.6365C364.961 30.1668 364.255 30.6071 363.393 30.9575C362.532 31.3079 361.499 31.4831 360.297 31.4831ZM361.22 28.074C362.394 28.074 363.398 27.842 364.231 27.3779C365.074 26.9139 365.713 26.3079 366.149 25.5598C366.594 24.8022 366.817 23.9925 366.817 23.1308V20.3183C366.665 20.4698 366.372 20.6118 365.936 20.7444C365.51 20.8675 365.022 20.9764 364.473 21.0711C363.924 21.1563 363.389 21.2368 362.868 21.3126C362.347 21.3789 361.911 21.4357 361.561 21.4831C360.737 21.5872 359.984 21.7624 359.302 22.0086C358.63 22.2548 358.09 22.6099 357.683 23.074C357.285 23.5285 357.087 24.1346 357.087 24.8921C357.087 25.9433 357.475 26.7387 358.251 27.2785C359.028 27.8088 360.017 28.074 361.22 28.074Z" fill="#1E1E1E"/>
<path d="M568.156 153.545V146.545L589.813 124.108C592.125 121.67 594.031 119.535 595.531 117.702C597.052 115.847 598.188 114.087 598.938 112.42C599.688 110.754 600.063 108.983 600.063 107.108C600.063 104.983 599.563 103.15 598.563 101.608C597.563 100.045 596.198 98.8469 594.469 98.0139C592.74 97.1599 590.792 96.7329 588.625 96.7329C586.333 96.7329 584.333 97.2019 582.625 98.1389C580.917 99.0769 579.604 100.4 578.688 102.108C577.771 103.816 577.313 105.816 577.313 108.108H568.094C568.094 104.212 568.99 100.806 570.781 97.8889C572.573 94.9719 575.031 92.7119 578.156 91.1079C581.281 89.4829 584.833 88.6699 588.812 88.6699C592.833 88.6699 596.375 89.4719 599.438 91.0769C602.521 92.6599 604.927 94.8269 606.656 97.5769C608.385 100.306 609.25 103.389 609.25 106.827C609.25 109.202 608.802 111.525 607.906 113.795C607.031 116.066 605.5 118.597 603.313 121.389C601.125 124.16 598.083 127.525 594.188 131.483L581.469 144.795V145.264H610.281V153.545H568.156ZM643.438 154.608C638.501 154.587 634.282 153.285 630.782 150.702C627.282 148.118 624.605 144.358 622.751 139.42C620.897 134.483 619.97 128.535 619.97 121.577C619.97 114.639 620.897 108.712 622.751 103.795C624.626 98.8789 627.313 95.1289 630.813 92.5449C634.334 89.9619 638.542 88.6699 643.438 88.6699C648.334 88.6699 652.532 89.9719 656.032 92.5769C659.532 95.1599 662.209 98.9099 664.063 103.827C665.938 108.722 666.876 114.639 666.876 121.577C666.876 128.556 665.949 134.514 664.095 139.452C662.24 144.368 659.563 148.129 656.063 150.733C652.563 153.316 648.355 154.608 643.438 154.608ZM643.438 146.264C647.772 146.264 651.157 144.15 653.595 139.92C656.053 135.691 657.282 129.577 657.282 121.577C657.282 116.264 656.72 111.775 655.595 108.108C654.49 104.42 652.897 101.629 650.813 99.7329C648.751 97.8159 646.292 96.8579 643.438 96.8579C639.126 96.8579 635.74 98.9829 633.282 103.233C630.824 107.483 629.584 113.597 629.563 121.577C629.563 126.91 630.115 131.42 631.22 135.108C632.345 138.775 633.938 141.556 636.001 143.452C638.063 145.327 640.542 146.264 643.438 146.264ZM676.994 153.545V146.545L698.65 124.108C700.962 121.67 702.869 119.535 704.369 117.702C705.89 115.847 707.025 114.087 707.775 112.42C708.525 110.754 708.9 108.983 708.9 107.108C708.9 104.983 708.4 103.15 707.4 101.608C706.4 100.045 705.035 98.8469 703.306 98.0139C701.577 97.1599 699.629 96.7329 697.462 96.7329C695.171 96.7329 693.171 97.2019 691.462 98.1389C689.754 99.0769 688.442 100.4 687.525 102.108C686.608 103.816 686.15 105.816 686.15 108.108H676.931C676.931 104.212 677.827 100.806 679.619 97.8889C681.41 94.9719 683.869 92.7119 686.994 91.1079C690.119 89.4829 693.671 88.6699 697.65 88.6699C701.671 88.6699 705.212 89.4719 708.275 91.0769C711.358 92.6599 713.765 94.8269 715.494 97.5769C717.223 100.306 718.087 103.389 718.087 106.827C718.087 109.202 717.64 111.525 716.744 113.795C715.869 116.066 714.337 118.597 712.15 121.389C709.962 124.16 706.921 127.525 703.025 131.483L690.306 144.795V145.264H719.119V153.545H676.994ZM752.276 154.608C747.338 154.587 743.119 153.285 739.619 150.702C736.119 148.118 733.442 144.358 731.588 139.42C729.734 134.483 728.807 128.535 728.807 121.577C728.807 114.639 729.734 108.712 731.588 103.795C733.463 98.8789 736.151 95.1289 739.651 92.5449C743.172 89.9619 747.38 88.6699 752.276 88.6699C757.172 88.6699 761.369 89.9719 764.869 92.5769C768.369 95.1599 771.047 98.9099 772.901 103.827C774.776 108.722 775.713 114.639 775.713 121.577C775.713 128.556 774.786 134.514 772.932 139.452C771.078 144.368 768.401 148.129 764.901 150.733C761.401 153.316 757.192 154.608 752.276 154.608ZM752.276 146.264C756.609 146.264 759.994 144.15 762.432 139.92C764.89 135.691 766.119 129.577 766.119 121.577C766.119 116.264 765.557 111.775 764.432 108.108C763.328 104.42 761.734 101.629 759.651 99.7329C757.588 97.8159 755.13 96.8579 752.276 96.8579C747.963 96.8579 744.578 98.9829 742.119 103.233C739.661 107.483 738.422 113.597 738.401 121.577C738.401 126.91 738.953 131.42 740.057 135.108C741.182 138.775 742.776 141.556 744.838 143.452C746.901 145.327 749.38 146.264 752.276 146.264Z" fill="#1E1E1E"/>
<path d="M543 121.545V81.5454C543 68.2906 553.745 57.5454 567 57.5454H775C788.255 57.5454 799 68.2906 799 81.5454V121.545" stroke="#F69420" stroke-width="3" stroke-miterlimit="0" stroke-linecap="round" stroke-linejoin="bevel"/>
<path d="M636.653 30.9999H631.994L642.463 1.90902H647.534L658.003 30.9999H653.344L645.119 7.19312H644.892L636.653 30.9999ZM637.435 19.6079H652.548V23.301H637.435V19.6079ZM665.67 18.0454V30.9999H661.423V9.18172H665.5V12.7329H665.77C666.271 11.5776 667.057 10.6495 668.127 9.94882C669.207 9.24802 670.566 8.89762 672.204 8.89762C673.691 8.89762 674.993 9.21012 676.11 9.83512C677.228 10.4507 678.094 11.3692 678.71 12.5908C679.325 13.8124 679.633 15.3228 679.633 17.1221V30.9999H675.386V17.6334C675.386 16.052 674.974 14.8162 674.15 13.926C673.326 13.0264 672.195 12.5766 670.755 12.5766C669.77 12.5766 668.895 12.7897 668.127 13.2158C667.37 13.6419 666.769 14.2669 666.323 15.0908C665.888 15.9052 665.67 16.8901 665.67 18.0454ZM666.252 6.53972L663.397 6.45442C663.397 4.88252 663.819 3.62772 664.662 2.69022C665.514 1.75272 666.565 1.28402 667.815 1.28402C668.393 1.28402 668.899 1.38342 669.335 1.58232C669.77 1.77172 670.178 1.99422 670.556 2.24992C670.945 2.49612 671.328 2.71862 671.707 2.91752C672.095 3.10692 672.526 3.20162 673 3.20162C673.549 3.20162 673.994 2.99332 674.335 2.57662C674.685 2.15992 674.86 1.64382 674.86 1.02832L677.659 1.21302C677.659 2.79442 677.233 4.03972 676.38 4.94882C675.528 5.84842 674.482 6.30292 673.241 6.31242C672.569 6.31242 672.01 6.21772 671.565 6.02832C671.129 5.82942 670.741 5.60692 670.4 5.36072C670.059 5.10502 669.709 4.87772 669.349 4.67892C668.989 4.48002 668.558 4.38062 668.056 4.38062C667.526 4.38062 667.091 4.58892 666.75 5.00562C666.418 5.41282 666.252 5.92412 666.252 6.53972ZM694.08 31.4402C692.034 31.4402 690.249 30.9715 688.724 30.034C687.2 29.0965 686.016 27.7849 685.173 26.0993C684.33 24.4137 683.909 22.444 683.909 20.1902C683.909 17.927 684.33 15.9478 685.173 14.2527C686.016 12.5577 687.2 11.2414 688.724 10.3039C690.249 9.36642 692.034 8.89762 694.08 8.89762C696.125 8.89762 697.91 9.36642 699.435 10.3039C700.959 11.2414 702.143 12.5577 702.986 14.2527C703.829 15.9478 704.25 17.927 704.25 20.1902C704.25 22.444 703.829 24.4137 702.986 26.0993C702.143 27.7849 700.959 29.0965 699.435 30.034C697.91 30.9715 696.125 31.4402 694.08 31.4402ZM694.094 27.8749C695.419 27.8749 696.518 27.5245 697.389 26.8238C698.26 26.123 698.904 25.1902 699.321 24.0255C699.747 22.8607 699.96 21.5776 699.96 20.176C699.96 18.784 699.747 17.5056 699.321 16.3408C698.904 15.1666 698.26 14.2243 697.389 13.5141C696.518 12.8039 695.419 12.4488 694.094 12.4488C692.758 12.4488 691.651 12.8039 690.77 13.5141C689.899 14.2243 689.25 15.1666 688.824 16.3408C688.407 17.5056 688.199 18.784 688.199 20.176C688.199 21.5776 688.407 22.8607 688.824 24.0255C689.25 25.1902 689.899 26.123 690.77 26.8238C691.651 27.5245 692.758 27.8749 694.094 27.8749Z" fill="#1E1E1E"/>
<path d="M908.438 89.5449V153.545H898.75V99.2329H898.375L883.063 109.233V99.9829L899.031 89.5449H908.438ZM924.782 153.545V146.545L946.438 124.108C948.751 121.67 950.657 119.535 952.157 117.702C953.678 115.847 954.813 114.087 955.563 112.42C956.313 110.754 956.688 108.983 956.688 107.108C956.688 104.983 956.188 103.15 955.188 101.608C954.188 100.045 952.824 98.8469 951.095 98.0139C949.365 97.1599 947.417 96.7329 945.251 96.7329C942.959 96.7329 940.959 97.2019 939.251 98.1389C937.542 99.0769 936.23 100.4 935.313 102.108C934.397 103.816 933.938 105.816 933.938 108.108H924.72C924.72 104.212 925.615 100.806 927.407 97.8889C929.199 94.9719 931.657 92.7119 934.782 91.1079C937.907 89.4829 941.459 88.6699 945.438 88.6699C949.459 88.6699 953.001 89.4719 956.063 91.0769C959.147 92.6599 961.553 94.8269 963.282 97.5769C965.011 100.306 965.876 103.389 965.876 106.827C965.876 109.202 965.428 111.525 964.532 113.795C963.657 116.066 962.126 118.597 959.938 121.389C957.751 124.16 954.709 127.525 950.813 131.483L938.095 144.795V145.264H966.907V153.545H924.782ZM1002.06 89.5449V153.545H992.377V99.2329H992.002L976.689 109.233V99.9829L992.658 89.5449H1002.06ZM1039.53 154.42C1035.62 154.42 1032.1 153.67 1028.97 152.17C1025.87 150.65 1023.39 148.566 1021.53 145.92C1019.68 143.275 1018.69 140.254 1018.56 136.858H1027.94C1028.17 139.608 1029.39 141.868 1031.6 143.639C1033.8 145.41 1036.45 146.295 1039.53 146.295C1041.99 146.295 1044.17 145.733 1046.06 144.608C1047.98 143.462 1049.48 141.889 1050.56 139.889C1051.67 137.889 1052.22 135.608 1052.22 133.045C1052.22 130.441 1051.66 128.118 1050.53 126.077C1049.41 124.035 1047.86 122.431 1045.88 121.264C1043.92 120.097 1041.67 119.504 1039.13 119.483C1037.19 119.483 1035.24 119.816 1033.28 120.483C1031.33 121.15 1029.74 122.025 1028.53 123.108L1019.69 121.795L1023.28 89.5449H1058.47V97.8269H1031.31L1029.28 115.733H1029.66C1030.91 114.525 1032.56 113.514 1034.63 112.702C1036.71 111.889 1038.94 111.483 1041.31 111.483C1045.21 111.483 1048.68 112.41 1051.72 114.264C1054.78 116.118 1057.19 118.65 1058.94 121.858C1060.71 125.045 1061.59 128.712 1061.56 132.858C1061.59 137.004 1060.65 140.702 1058.75 143.952C1056.88 147.202 1054.27 149.764 1050.94 151.639C1047.63 153.493 1043.83 154.42 1039.53 154.42Z" fill="#1E1E1E"/>
<path d="M844 119.545V79.5454C844 66.2906 854.745 55.5454 868 55.5454H1076C1089.25 55.5454 1100 66.2906 1100 79.5454V119.545" stroke="#F69420" stroke-width="3" stroke-miterlimit="0" stroke-linecap="round" stroke-linejoin="bevel"/>
<path d="M904.358 11.3694H899.926C899.756 10.4224 899.438 9.58908 898.974 8.86938C898.51 8.14968 897.942 7.53887 897.27 7.03697C896.598 6.53507 895.845 6.15627 895.011 5.90067C894.188 5.64497 893.312 5.51707 892.384 5.51707C890.707 5.51707 889.206 5.93847 887.881 6.78127C886.564 7.62417 885.523 8.85987 884.756 10.4887C883.998 12.1175 883.619 14.1062 883.619 16.4546C883.619 18.8221 883.998 20.8202 884.756 22.449C885.523 24.0778 886.569 25.3088 887.895 26.1421C889.221 26.9755 890.712 27.3921 892.369 27.3921C893.288 27.3921 894.159 27.269 894.983 27.0228C895.816 26.7671 896.569 26.3931 897.241 25.9007C897.914 25.4082 898.482 24.8069 898.946 24.0967C899.42 23.377 899.746 22.5531 899.926 21.6251L904.358 21.6393C904.121 23.0692 903.662 24.3855 902.98 25.5882C902.308 26.7813 901.441 27.8135 900.381 28.6848C899.33 29.5465 898.127 30.2141 896.773 30.6876C895.419 31.1611 893.941 31.3978 892.341 31.3978C889.822 31.3978 887.578 30.8012 885.608 29.6081C883.638 28.4054 882.085 26.6867 880.949 24.4518C879.822 22.217 879.259 19.5512 879.259 16.4546C879.259 13.3486 879.827 10.6829 880.963 8.45747C882.099 6.22257 883.652 4.50857 885.622 3.31537C887.592 2.11277 889.831 1.51147 892.341 1.51147C893.884 1.51147 895.324 1.73398 896.659 2.17908C898.004 2.61468 899.211 3.25857 900.281 4.11087C901.351 4.95367 902.237 5.98587 902.938 7.20747C903.638 8.41957 904.112 9.80688 904.358 11.3694ZM918.02 31.4404C915.974 31.4404 914.189 30.9717 912.664 30.0342C911.14 29.0967 909.956 27.7851 909.113 26.0995C908.27 24.4139 907.849 22.4442 907.849 20.1904C907.849 17.9272 908.27 15.948 909.113 14.2529C909.956 12.5579 911.14 11.2416 912.664 10.3041C914.189 9.36658 915.974 8.89777 918.02 8.89777C920.065 8.89777 921.85 9.36658 923.375 10.3041C924.899 11.2416 926.083 12.5579 926.926 14.2529C927.769 15.948 928.19 17.9272 928.19 20.1904C928.19 22.4442 927.769 24.4139 926.926 26.0995C926.083 27.7851 924.899 29.0967 923.375 30.0342C921.85 30.9717 920.065 31.4404 918.02 31.4404ZM918.034 27.8751C919.359 27.8751 920.458 27.5247 921.329 26.824C922.2 26.1232 922.844 25.1904 923.261 24.0257C923.687 22.8609 923.9 21.5778 923.9 20.1762C923.9 18.7842 923.687 17.5058 923.261 16.341C922.844 15.1668 922.2 14.2245 921.329 13.5143C920.458 12.8041 919.359 12.449 918.034 12.449C916.698 12.449 915.591 12.8041 914.71 13.5143C913.839 14.2245 913.19 15.1668 912.764 16.341C912.347 17.5058 912.139 18.7842 912.139 20.1762C912.139 21.5778 912.347 22.8609 912.764 24.0257C913.19 25.1904 913.839 26.1232 914.71 26.824C915.591 27.5247 916.698 27.8751 918.034 27.8751ZM936.738 18.0456V31.0001H932.491V9.18188H936.567V12.7331H936.837C937.339 11.5778 938.125 10.6497 939.195 9.94897C940.275 9.24817 941.634 8.89777 943.272 8.89777C944.759 8.89777 946.061 9.21027 947.178 9.83527C948.296 10.4509 949.162 11.3694 949.778 12.591C950.393 13.8126 950.701 15.323 950.701 17.1223V31.0001H946.454V17.6336C946.454 16.0522 946.042 14.8164 945.218 13.9262C944.394 13.0266 943.263 12.5768 941.823 12.5768C940.838 12.5768 939.962 12.7899 939.195 13.216C938.438 13.6421 937.836 14.2671 937.391 15.091C936.956 15.9054 936.738 16.8903 936.738 18.0456ZM966.142 9.18188V12.591H954.224V9.18188H966.142ZM957.42 3.95457H961.667V24.5939C961.667 25.4177 961.79 26.038 962.037 26.4546C962.283 26.8618 962.6 27.1412 962.988 27.2927C963.386 27.4348 963.817 27.5058 964.281 27.5058C964.622 27.5058 964.92 27.4821 965.176 27.4348C965.431 27.3874 965.63 27.3495 965.772 27.3211L966.539 30.8296C966.293 30.9243 965.943 31.019 965.488 31.1137C965.034 31.2179 964.466 31.2747 963.784 31.2842C962.666 31.3031 961.625 31.1043 960.659 30.6876C959.693 30.2709 958.912 29.627 958.315 28.7558C957.718 27.8846 957.42 26.7908 957.42 25.4745V3.95457ZM976.749 31.4831C975.367 31.4831 974.117 31.2274 972.999 30.716C971.882 30.1952 970.996 29.4423 970.343 28.4575C969.699 27.4726 969.377 26.2653 969.377 24.8353C969.377 23.6043 969.614 22.591 970.087 21.7956C970.561 21.0001 971.2 20.3704 972.005 19.9063C972.81 19.4423 973.709 19.092 974.704 18.8552C975.698 18.6185 976.711 18.4385 977.744 18.3154C979.05 18.1639 980.111 18.0408 980.925 17.9461C981.74 17.842 982.332 17.6762 982.701 17.449C983.07 17.2217 983.255 16.8524 983.255 16.341V16.2416C983.255 15.001 982.905 14.0399 982.204 13.3581C981.512 12.6762 980.48 12.3353 979.107 12.3353C977.677 12.3353 976.55 12.6526 975.727 13.287C974.912 13.912 974.349 14.6081 974.036 15.3751L970.045 14.466C970.518 13.1403 971.209 12.0702 972.119 11.2558C973.037 10.4319 974.093 9.83527 975.286 9.46597C976.479 9.08717 977.734 8.89777 979.05 8.89777C979.922 8.89777 980.845 9.00197 981.82 9.21027C982.805 9.40917 983.724 9.77847 984.576 10.3183C985.438 10.8581 986.143 11.6298 986.692 12.6336C987.242 13.6279 987.516 14.9206 987.516 16.5115V31.0001H983.369V28.0171H983.198C982.923 28.5664 982.512 29.1062 981.962 29.6365C981.413 30.1668 980.708 30.6071 979.846 30.9575C978.984 31.3079 977.952 31.4831 976.749 31.4831ZM977.673 28.074C978.847 28.074 979.851 27.842 980.684 27.3779C981.527 26.9139 982.166 26.3079 982.602 25.5598C983.047 24.8022 983.269 23.9925 983.269 23.1308V20.3183C983.118 20.4698 982.824 20.6118 982.388 20.7444C981.962 20.8675 981.475 20.9764 980.925 21.0711C980.376 21.1563 979.841 21.2368 979.32 21.3126C978.799 21.3789 978.364 21.4357 978.013 21.4831C977.19 21.5872 976.437 21.7624 975.755 22.0086C975.083 22.2548 974.543 22.6099 974.136 23.074C973.738 23.5285 973.539 24.1346 973.539 24.8921C973.539 25.9433 973.927 26.7387 974.704 27.2785C975.48 27.8088 976.47 28.074 977.673 28.074ZM1000.9 31.4262C999.139 31.4262 997.568 30.9764 996.185 30.0768C994.812 29.1677 993.732 27.8751 992.946 26.199C992.17 24.5134 991.782 22.4916 991.782 20.1336C991.782 17.7757 992.175 15.7586 992.961 14.0825C993.756 12.4063 994.845 11.1232 996.228 10.2331C997.61 9.34287 999.177 8.89777 1000.93 8.89777C1002.28 8.89777 1003.37 9.12507 1004.2 9.57957C1005.03 10.0247 1005.67 10.5456 1006.13 11.1421C1006.59 11.7387 1006.95 12.2643 1007.21 12.7189H1007.46V1.90917H1011.71V31.0001H1007.56V27.6052H1007.21C1006.95 28.0692 1006.58 28.5995 1006.1 29.1961C1005.63 29.7927 1004.97 30.3135 1004.14 30.7586C1003.31 31.2037 1002.23 31.4262 1000.9 31.4262ZM1001.84 27.8041C1003.06 27.8041 1004.09 27.4821 1004.93 26.8382C1005.79 26.1848 1006.43 25.2804 1006.87 24.1251C1007.31 22.9698 1007.53 21.6251 1007.53 20.091C1007.53 18.5759 1007.32 17.2501 1006.88 16.1137C1006.45 14.9774 1005.81 14.092 1004.96 13.4575C1004.12 12.823 1003.08 12.5058 1001.84 12.5058C1000.56 12.5058 999.495 12.8372 998.642 13.5001C997.79 14.163 997.146 15.0673 996.711 16.2132C996.284 17.359 996.071 18.6516 996.071 20.091C996.071 21.5493 996.289 22.8609 996.725 24.0257C997.16 25.1904 997.804 26.1137 998.657 26.7956C999.518 27.4679 1000.58 27.8041 1001.84 27.8041ZM1026.52 31.4404C1024.48 31.4404 1022.69 30.9717 1021.17 30.0342C1019.64 29.0967 1018.46 27.7851 1017.62 26.0995C1016.77 24.4139 1016.35 22.4442 1016.35 20.1904C1016.35 17.9272 1016.77 15.948 1017.62 14.2529C1018.46 12.5579 1019.64 11.2416 1021.17 10.3041C1022.69 9.36658 1024.48 8.89777 1026.52 8.89777C1028.57 8.89777 1030.35 9.36658 1031.88 10.3041C1033.4 11.2416 1034.59 12.5579 1035.43 14.2529C1036.27 15.948 1036.69 17.9272 1036.69 20.1904C1036.69 22.4442 1036.27 24.4139 1035.43 26.0995C1034.59 27.7851 1033.4 29.0967 1031.88 30.0342C1030.35 30.9717 1028.57 31.4404 1026.52 31.4404ZM1026.54 27.8751C1027.86 27.8751 1028.96 27.5247 1029.83 26.824C1030.7 26.1232 1031.35 25.1904 1031.76 24.0257C1032.19 22.8609 1032.4 21.5778 1032.4 20.1762C1032.4 18.7842 1032.19 17.5058 1031.76 16.341C1031.35 15.1668 1030.7 14.2245 1029.83 13.5143C1028.96 12.8041 1027.86 12.449 1026.54 12.449C1025.2 12.449 1024.09 12.8041 1023.21 13.5143C1022.34 14.2245 1021.69 15.1668 1021.27 16.341C1020.85 17.5058 1020.64 18.7842 1020.64 20.1762C1020.64 21.5778 1020.85 22.8609 1021.27 24.0257C1021.69 25.1904 1022.34 26.1232 1023.21 26.824C1024.09 27.5247 1025.2 27.8751 1026.54 27.8751ZM1040.99 31.0001V9.18188H1045.1V12.6478H1045.33C1045.72 11.4736 1046.42 10.5503 1047.43 9.87787C1048.44 9.19607 1049.59 8.85518 1050.87 8.85518C1051.13 8.85518 1051.44 8.86467 1051.8 8.88357C1052.17 8.90257 1052.46 8.92617 1052.67 8.95457V13.0171C1052.5 12.9698 1052.2 12.9177 1051.76 12.8609C1051.33 12.7946 1050.89 12.7615 1050.45 12.7615C1049.45 12.7615 1048.56 12.9745 1047.77 13.4007C1046.99 13.8173 1046.38 14.3997 1045.92 15.1478C1045.47 15.8865 1045.24 16.7293 1045.24 17.6762V31.0001H1040.99Z" fill="#1E1E1E"/>
<path d="M185.196 233.455V204.364H203.435V208.142H189.585V217.006H202.483V220.77H189.585V229.676H203.605V233.455H185.196ZM208.517 211.636H212.764V234.875C212.764 236.333 212.499 237.564 211.968 238.568C211.448 239.572 210.671 240.334 209.639 240.855C208.616 241.376 207.352 241.636 205.846 241.636C205.695 241.636 205.553 241.636 205.42 241.636C205.278 241.636 205.131 241.632 204.98 241.622V237.972C205.112 237.972 205.231 237.972 205.335 237.972C205.43 237.972 205.538 237.972 205.662 237.972C206.665 237.972 207.39 237.702 207.835 237.162C208.289 236.632 208.517 235.86 208.517 234.847V211.636ZM210.619 208.27C209.88 208.27 209.246 208.024 208.716 207.531C208.195 207.029 207.934 206.433 207.934 205.742C207.934 205.041 208.195 204.444 208.716 203.952C209.246 203.45 209.88 203.199 210.619 203.199C211.358 203.199 211.987 203.45 212.508 203.952C213.038 204.444 213.304 205.041 213.304 205.742C213.304 206.433 213.038 207.029 212.508 207.531C211.987 208.024 211.358 208.27 210.619 208.27ZM227.441 233.895C225.291 233.895 223.44 233.436 221.887 232.517C220.343 231.589 219.15 230.287 218.307 228.611C217.474 226.925 217.057 224.951 217.057 222.688C217.057 220.453 217.474 218.483 218.307 216.778C219.15 215.074 220.325 213.743 221.83 212.787C223.345 211.831 225.116 211.352 227.143 211.352C228.374 211.352 229.567 211.556 230.722 211.963C231.878 212.37 232.915 213.01 233.833 213.881C234.752 214.752 235.476 215.884 236.006 217.276C236.537 218.658 236.802 220.339 236.802 222.318V223.824H219.458V220.642H232.64C232.64 219.525 232.413 218.535 231.958 217.673C231.504 216.802 230.864 216.116 230.04 215.614C229.226 215.112 228.27 214.861 227.171 214.861C225.978 214.861 224.936 215.154 224.046 215.742C223.165 216.319 222.484 217.077 222.001 218.014C221.527 218.942 221.29 219.951 221.29 221.04V223.526C221.29 224.984 221.546 226.224 222.057 227.247C222.578 228.27 223.303 229.051 224.231 229.591C225.159 230.121 226.243 230.386 227.484 230.386C228.289 230.386 229.022 230.273 229.685 230.045C230.348 229.809 230.921 229.458 231.404 228.994C231.887 228.53 232.256 227.957 232.512 227.276L236.532 228C236.21 229.184 235.632 230.221 234.799 231.111C233.975 231.992 232.938 232.678 231.688 233.17C230.448 233.653 229.032 233.895 227.441 233.895ZM241.074 233.455V211.636H245.151V215.188H245.421C245.875 213.985 246.619 213.047 247.651 212.375C248.683 211.693 249.919 211.352 251.358 211.352C252.817 211.352 254.038 211.693 255.023 212.375C256.017 213.057 256.751 213.994 257.225 215.188H257.452C257.973 214.023 258.801 213.095 259.938 212.403C261.074 211.703 262.428 211.352 264 211.352C265.979 211.352 267.594 211.973 268.844 213.213C270.104 214.454 270.733 216.324 270.733 218.824V233.455H266.486V219.222C266.486 217.744 266.084 216.674 265.279 216.011C264.474 215.349 263.513 215.017 262.395 215.017C261.013 215.017 259.938 215.443 259.171 216.296C258.404 217.138 258.02 218.223 258.02 219.548V233.455H253.787V218.952C253.787 217.768 253.418 216.816 252.679 216.097C251.941 215.377 250.979 215.017 249.796 215.017C248.991 215.017 248.247 215.23 247.566 215.656C246.893 216.073 246.349 216.655 245.932 217.403C245.525 218.152 245.321 219.018 245.321 220.003V233.455H241.074ZM275.986 241.636V211.636H280.133V215.173H280.489C280.735 214.719 281.09 214.193 281.554 213.597C282.018 213 282.662 212.479 283.486 212.034C284.31 211.58 285.399 211.352 286.753 211.352C288.514 211.352 290.086 211.797 291.469 212.688C292.851 213.578 293.936 214.861 294.722 216.537C295.517 218.213 295.915 220.23 295.915 222.588C295.915 224.946 295.522 226.968 294.736 228.653C293.95 230.33 292.87 231.622 291.497 232.531C290.124 233.431 288.557 233.881 286.795 233.881C285.47 233.881 284.385 233.658 283.543 233.213C282.709 232.768 282.056 232.247 281.582 231.651C281.109 231.054 280.744 230.524 280.489 230.06H280.233V241.636H275.986ZM280.148 222.545C280.148 224.08 280.37 225.424 280.815 226.58C281.26 227.735 281.904 228.639 282.747 229.293C283.59 229.937 284.622 230.259 285.844 230.259C287.113 230.259 288.173 229.922 289.025 229.25C289.878 228.568 290.522 227.645 290.957 226.48C291.402 225.315 291.625 224.004 291.625 222.545C291.625 221.106 291.407 219.813 290.972 218.668C290.545 217.522 289.901 216.617 289.04 215.955C288.187 215.292 287.122 214.96 285.844 214.96C284.613 214.96 283.571 215.278 282.719 215.912C281.876 216.546 281.237 217.432 280.801 218.568C280.365 219.705 280.148 221.03 280.148 222.545ZM304.48 204.364V233.455H300.233V204.364H304.48ZM318.945 233.895C316.899 233.895 315.114 233.426 313.589 232.489C312.065 231.551 310.881 230.24 310.038 228.554C309.195 226.868 308.774 224.899 308.774 222.645C308.774 220.382 309.195 218.403 310.038 216.707C310.881 215.012 312.065 213.696 313.589 212.759C315.114 211.821 316.899 211.352 318.945 211.352C320.99 211.352 322.775 211.821 324.3 212.759C325.824 213.696 327.008 215.012 327.851 216.707C328.694 218.403 329.115 220.382 329.115 222.645C329.115 224.899 328.694 226.868 327.851 228.554C327.008 230.24 325.824 231.551 324.3 232.489C322.775 233.426 320.99 233.895 318.945 233.895ZM318.959 230.33C320.284 230.33 321.383 229.979 322.254 229.278C323.125 228.578 323.769 227.645 324.186 226.48C324.612 225.315 324.825 224.032 324.825 222.631C324.825 221.239 324.612 219.96 324.186 218.796C323.769 217.621 323.125 216.679 322.254 215.969C321.383 215.259 320.284 214.903 318.959 214.903C317.623 214.903 316.516 215.259 315.635 215.969C314.764 216.679 314.115 217.621 313.689 218.796C313.272 219.96 313.064 221.239 313.064 222.631C313.064 224.032 313.272 225.315 313.689 226.48C314.115 227.645 314.764 228.578 315.635 229.278C316.516 229.979 317.623 230.33 318.959 230.33ZM351.729 233.881C349.968 233.881 348.396 233.431 347.013 232.531C345.64 231.622 344.561 230.33 343.775 228.653C342.998 226.968 342.61 224.946 342.61 222.588C342.61 220.23 343.003 218.213 343.789 216.537C344.584 214.861 345.673 213.578 347.056 212.688C348.439 211.797 350.006 211.352 351.758 211.352C353.112 211.352 354.201 211.58 355.025 212.034C355.858 212.479 356.502 213 356.957 213.597C357.421 214.193 357.78 214.719 358.036 215.173H358.292V204.364H362.539V233.455H358.391V230.06H358.036C357.78 230.524 357.411 231.054 356.928 231.651C356.455 232.247 355.801 232.768 354.968 233.213C354.135 233.658 353.055 233.881 351.729 233.881ZM352.667 230.259C353.888 230.259 354.921 229.937 355.763 229.293C356.616 228.639 357.26 227.735 357.695 226.58C358.14 225.424 358.363 224.08 358.363 222.545C358.363 221.03 358.145 219.705 357.709 218.568C357.274 217.432 356.635 216.546 355.792 215.912C354.949 215.278 353.907 214.96 352.667 214.96C351.388 214.96 350.323 215.292 349.471 215.955C348.618 216.617 347.975 217.522 347.539 218.668C347.113 219.813 346.9 221.106 346.9 222.545C346.9 224.004 347.118 225.315 347.553 226.48C347.989 227.645 348.633 228.568 349.485 229.25C350.347 229.922 351.407 230.259 352.667 230.259ZM377.564 233.895C375.415 233.895 373.563 233.436 372.01 232.517C370.467 231.589 369.273 230.287 368.431 228.611C367.597 226.925 367.181 224.951 367.181 222.688C367.181 220.453 367.597 218.483 368.431 216.778C369.273 215.074 370.448 213.743 371.953 212.787C373.468 211.831 375.239 211.352 377.266 211.352C378.497 211.352 379.69 211.556 380.845 211.963C382.001 212.37 383.038 213.01 383.956 213.881C384.875 214.752 385.599 215.884 386.129 217.276C386.66 218.658 386.925 220.339 386.925 222.318V223.824H369.581V220.642H382.763C382.763 219.525 382.536 218.535 382.081 217.673C381.627 216.802 380.987 216.116 380.164 215.614C379.349 215.112 378.393 214.861 377.294 214.861C376.101 214.861 375.059 215.154 374.169 215.742C373.289 216.319 372.607 217.077 372.124 218.014C371.65 218.942 371.414 219.951 371.414 221.04V223.526C371.414 224.984 371.669 226.224 372.181 227.247C372.701 228.27 373.426 229.051 374.354 229.591C375.282 230.121 376.366 230.386 377.607 230.386C378.412 230.386 379.146 230.273 379.808 230.045C380.471 229.809 381.044 229.458 381.527 228.994C382.01 228.53 382.379 227.957 382.635 227.276L386.655 228C386.333 229.184 385.755 230.221 384.922 231.111C384.098 231.992 383.061 232.678 381.811 233.17C380.571 233.653 379.155 233.895 377.564 233.895ZM405.59 220.5V233.455H401.343V211.636H405.42V215.188H405.69C406.192 214.032 406.978 213.104 408.048 212.403C409.127 211.703 410.486 211.352 412.124 211.352C413.611 211.352 414.913 211.665 416.031 212.29C417.148 212.905 418.015 213.824 418.63 215.046C419.246 216.267 419.553 217.778 419.553 219.577V233.455H415.306V220.088C415.306 218.507 414.894 217.271 414.07 216.381C413.247 215.481 412.115 215.031 410.676 215.031C409.691 215.031 408.815 215.244 408.048 215.671C407.29 216.097 406.689 216.722 406.244 217.546C405.808 218.36 405.59 219.345 405.59 220.5ZM438.63 224.406V211.636H442.892V233.455H438.716V229.676H438.488C437.987 230.841 437.182 231.812 436.074 232.588C434.975 233.355 433.607 233.739 431.969 233.739C430.567 233.739 429.327 233.431 428.247 232.815C427.177 232.19 426.334 231.267 425.719 230.045C425.113 228.824 424.809 227.313 424.809 225.514V211.636H429.057V225.003C429.057 226.49 429.469 227.673 430.292 228.554C431.116 229.435 432.186 229.875 433.503 229.875C434.298 229.875 435.089 229.676 435.875 229.278C436.67 228.881 437.328 228.279 437.849 227.474C438.38 226.67 438.64 225.647 438.63 224.406ZM432.125 208.724L435.449 202.176H439.923L435.52 208.724H432.125ZM448.159 233.455V211.636H452.235V215.188H452.505C452.96 213.985 453.703 213.047 454.735 212.375C455.767 211.693 457.003 211.352 458.443 211.352C459.901 211.352 461.123 211.693 462.107 212.375C463.102 213.057 463.836 213.994 464.309 215.188H464.536C465.057 214.023 465.886 213.095 467.022 212.403C468.159 211.703 469.513 211.352 471.085 211.352C473.064 211.352 474.678 211.973 475.928 213.213C477.188 214.454 477.818 216.324 477.818 218.824V233.455H473.57V219.222C473.57 217.744 473.168 216.674 472.363 216.011C471.558 215.349 470.597 215.017 469.48 215.017C468.097 215.017 467.022 215.443 466.255 216.296C465.488 217.138 465.105 218.223 465.105 219.548V233.455H460.872V218.952C460.872 217.768 460.502 216.816 459.764 216.097C459.025 215.377 458.064 215.017 456.88 215.017C456.075 215.017 455.332 215.23 454.65 215.656C453.978 216.073 453.433 216.655 453.016 217.403C452.609 218.152 452.406 219.018 452.406 220.003V233.455H448.159ZM492.473 233.895C490.324 233.895 488.473 233.436 486.92 232.517C485.376 231.589 484.183 230.287 483.34 228.611C482.507 226.925 482.09 224.951 482.09 222.688C482.09 220.453 482.507 218.483 483.34 216.778C484.183 215.074 485.357 213.743 486.863 212.787C488.378 211.831 490.149 211.352 492.175 211.352C493.406 211.352 494.599 211.556 495.755 211.963C496.91 212.37 497.947 213.01 498.866 213.881C499.784 214.752 500.509 215.884 501.039 217.276C501.569 218.658 501.834 220.339 501.834 222.318V223.824H484.491V220.642H497.672C497.672 219.525 497.445 218.535 496.991 217.673C496.536 216.802 495.897 216.116 495.073 215.614C494.259 215.112 493.302 214.861 492.204 214.861C491.01 214.861 489.969 215.154 489.079 215.742C488.198 216.319 487.516 217.077 487.033 218.014C486.56 218.942 486.323 219.951 486.323 221.04V223.526C486.323 224.984 486.579 226.224 487.09 227.247C487.611 228.27 488.335 229.051 489.263 229.591C490.191 230.121 491.276 230.386 492.516 230.386C493.321 230.386 494.055 230.273 494.718 230.045C495.381 229.809 495.954 229.458 496.437 228.994C496.92 228.53 497.289 227.957 497.545 227.276L501.564 228C501.242 229.184 500.665 230.221 499.831 231.111C499.008 231.992 497.971 232.678 496.721 233.17C495.48 233.653 494.064 233.895 492.473 233.895ZM506.107 233.455V211.636H510.212V215.102H510.439C510.837 213.928 511.538 213.005 512.541 212.332C513.555 211.651 514.7 211.31 515.979 211.31C516.244 211.31 516.556 211.319 516.916 211.338C517.286 211.357 517.574 211.381 517.783 211.409V215.472C517.612 215.424 517.309 215.372 516.874 215.315C516.438 215.249 516.002 215.216 515.567 215.216C514.563 215.216 513.668 215.429 512.882 215.855C512.106 216.272 511.49 216.854 511.036 217.602C510.581 218.341 510.354 219.184 510.354 220.131V233.455H506.107ZM529.427 233.895C527.382 233.895 525.597 233.426 524.072 232.489C522.548 231.551 521.364 230.24 520.521 228.554C519.678 226.868 519.257 224.899 519.257 222.645C519.257 220.382 519.678 218.403 520.521 216.707C521.364 215.012 522.548 213.696 524.072 212.759C525.597 211.821 527.382 211.352 529.427 211.352C531.473 211.352 533.258 211.821 534.782 212.759C536.307 213.696 537.491 215.012 538.334 216.707C539.176 218.403 539.598 220.382 539.598 222.645C539.598 224.899 539.176 226.868 538.334 228.554C537.491 230.24 536.307 231.551 534.782 232.489C533.258 233.426 531.473 233.895 529.427 233.895ZM529.441 230.33C530.767 230.33 531.866 229.979 532.737 229.278C533.608 228.578 534.252 227.645 534.669 226.48C535.095 225.315 535.308 224.032 535.308 222.631C535.308 221.239 535.095 219.96 534.669 218.796C534.252 217.621 533.608 216.679 532.737 215.969C531.866 215.259 530.767 214.903 529.441 214.903C528.106 214.903 526.998 215.259 526.118 215.969C525.246 216.679 524.598 217.621 524.172 218.796C523.755 219.96 523.547 221.239 523.547 222.631C523.547 224.032 523.755 225.315 524.172 226.48C524.598 227.645 525.246 228.578 526.118 229.278C526.998 229.979 528.106 230.33 529.441 230.33ZM562.212 233.881C560.451 233.881 558.879 233.431 557.496 232.531C556.123 231.622 555.043 230.33 554.258 228.653C553.481 226.968 553.093 224.946 553.093 222.588C553.093 220.23 553.486 218.213 554.272 216.537C555.067 214.861 556.156 213.578 557.539 212.688C558.921 211.797 560.489 211.352 562.24 211.352C563.595 211.352 564.684 211.58 565.508 212.034C566.341 212.479 566.985 213 567.439 213.597C567.903 214.193 568.263 214.719 568.519 215.173H568.775V204.364H573.022V233.455H568.874V230.06H568.519C568.263 230.524 567.894 231.054 567.411 231.651C566.937 232.247 566.284 232.768 565.451 233.213C564.617 233.658 563.538 233.881 562.212 233.881ZM563.15 230.259C564.371 230.259 565.403 229.937 566.246 229.293C567.098 228.639 567.742 227.735 568.178 226.58C568.623 225.424 568.846 224.08 568.846 222.545C568.846 221.03 568.628 219.705 568.192 218.568C567.757 217.432 567.117 216.546 566.275 215.912C565.432 215.278 564.39 214.96 563.15 214.96C561.871 214.96 560.806 215.292 559.954 215.955C559.101 216.617 558.457 217.522 558.022 218.668C557.596 219.813 557.383 221.106 557.383 222.545C557.383 224.004 557.6 225.315 558.036 226.48C558.472 227.645 559.115 228.568 559.968 229.25C560.829 229.922 561.89 230.259 563.15 230.259ZM588.047 233.895C585.897 233.895 584.046 233.436 582.493 232.517C580.949 231.589 579.756 230.287 578.913 228.611C578.08 226.925 577.663 224.951 577.663 222.688C577.663 220.453 578.08 218.483 578.913 216.778C579.756 215.074 580.93 213.743 582.436 212.787C583.951 211.831 585.722 211.352 587.749 211.352C588.98 211.352 590.173 211.556 591.328 211.963C592.483 212.37 593.52 213.01 594.439 213.881C595.358 214.752 596.082 215.884 596.612 217.276C597.143 218.658 597.408 220.339 597.408 222.318V223.824H580.064V220.642H593.246C593.246 219.525 593.019 218.535 592.564 217.673C592.109 216.802 591.47 216.116 590.646 215.614C589.832 215.112 588.876 214.861 587.777 214.861C586.584 214.861 585.542 215.154 584.652 215.742C583.771 216.319 583.09 217.077 582.607 218.014C582.133 218.942 581.896 219.951 581.896 221.04V223.526C581.896 224.984 582.152 226.224 582.663 227.247C583.184 228.27 583.909 229.051 584.837 229.591C585.765 230.121 586.849 230.386 588.09 230.386C588.894 230.386 589.628 230.273 590.291 230.045C590.954 229.809 591.527 229.458 592.01 228.994C592.493 228.53 592.862 227.957 593.118 227.276L597.138 228C596.816 229.184 596.238 230.221 595.405 231.111C594.581 231.992 593.544 232.678 592.294 233.17C591.054 233.653 589.638 233.895 588.047 233.895ZM621.016 233.895C618.905 233.895 617.086 233.417 615.562 232.46C614.047 231.494 612.882 230.164 612.067 228.469C611.253 226.774 610.846 224.832 610.846 222.645C610.846 220.429 611.263 218.474 612.096 216.778C612.929 215.074 614.103 213.743 615.619 212.787C617.134 211.831 618.919 211.352 620.974 211.352C622.631 211.352 624.108 211.66 625.406 212.276C626.703 212.882 627.749 213.734 628.545 214.832C629.35 215.931 629.828 217.214 629.979 218.682H625.846C625.619 217.659 625.098 216.778 624.283 216.04C623.478 215.301 622.399 214.932 621.045 214.932C619.861 214.932 618.824 215.244 617.934 215.869C617.053 216.485 616.367 217.366 615.874 218.511C615.382 219.648 615.136 220.992 615.136 222.545C615.136 224.136 615.377 225.51 615.86 226.665C616.343 227.82 617.025 228.715 617.906 229.349C618.796 229.984 619.842 230.301 621.045 230.301C621.85 230.301 622.579 230.154 623.232 229.861C623.895 229.558 624.449 229.127 624.894 228.568C625.349 228.01 625.666 227.337 625.846 226.551H629.979C629.828 227.962 629.369 229.222 628.602 230.33C627.835 231.438 626.807 232.309 625.519 232.943C624.241 233.578 622.74 233.895 621.016 233.895ZM640.431 233.938C639.048 233.938 637.798 233.682 636.681 233.17C635.563 232.65 634.678 231.897 634.025 230.912C633.381 229.927 633.059 228.72 633.059 227.29C633.059 226.059 633.295 225.045 633.769 224.25C634.242 223.455 634.882 222.825 635.686 222.361C636.491 221.897 637.391 221.546 638.385 221.31C639.38 221.073 640.393 220.893 641.425 220.77C642.732 220.618 643.793 220.495 644.607 220.401C645.421 220.296 646.013 220.131 646.382 219.903C646.752 219.676 646.936 219.307 646.936 218.796V218.696C646.936 217.456 646.586 216.494 645.885 215.813C645.194 215.131 644.162 214.79 642.789 214.79C641.359 214.79 640.232 215.107 639.408 215.742C638.594 216.367 638.03 217.063 637.718 217.83L633.726 216.921C634.2 215.595 634.891 214.525 635.8 213.71C636.719 212.886 637.775 212.29 638.968 211.92C640.161 211.542 641.416 211.352 642.732 211.352C643.603 211.352 644.526 211.456 645.502 211.665C646.487 211.864 647.405 212.233 648.257 212.773C649.119 213.313 649.825 214.084 650.374 215.088C650.923 216.082 651.198 217.375 651.198 218.966V233.455H647.05V230.472H646.88C646.605 231.021 646.193 231.561 645.644 232.091C645.095 232.621 644.389 233.062 643.527 233.412C642.666 233.762 641.633 233.938 640.431 233.938ZM641.354 230.528C642.528 230.528 643.532 230.296 644.365 229.832C645.208 229.368 645.847 228.762 646.283 228.014C646.728 227.257 646.951 226.447 646.951 225.585V222.773C646.799 222.924 646.506 223.066 646.07 223.199C645.644 223.322 645.156 223.431 644.607 223.526C644.058 223.611 643.523 223.691 643.002 223.767C642.481 223.833 642.045 223.89 641.695 223.938C640.871 224.042 640.118 224.217 639.436 224.463C638.764 224.709 638.224 225.064 637.817 225.528C637.419 225.983 637.221 226.589 637.221 227.347C637.221 228.398 637.609 229.193 638.385 229.733C639.162 230.263 640.151 230.528 641.354 230.528ZM672.764 216.963L668.915 217.645C668.754 217.153 668.498 216.684 668.148 216.239C667.807 215.794 667.343 215.429 666.756 215.145C666.169 214.861 665.435 214.719 664.554 214.719C663.351 214.719 662.348 214.989 661.543 215.528C660.738 216.059 660.335 216.745 660.335 217.588C660.335 218.317 660.605 218.904 661.145 219.349C661.685 219.795 662.556 220.159 663.759 220.443L667.224 221.239C669.232 221.703 670.728 222.418 671.713 223.384C672.698 224.349 673.19 225.604 673.19 227.148C673.19 228.455 672.812 229.619 672.054 230.642C671.306 231.655 670.259 232.451 668.915 233.028C667.58 233.606 666.031 233.895 664.27 233.895C661.827 233.895 659.833 233.374 658.29 232.332C656.746 231.281 655.799 229.79 655.449 227.858L659.554 227.233C659.81 228.303 660.335 229.113 661.131 229.662C661.926 230.202 662.963 230.472 664.241 230.472C665.634 230.472 666.746 230.183 667.58 229.605C668.413 229.018 668.83 228.303 668.83 227.46C668.83 226.778 668.574 226.206 668.063 225.742C667.561 225.278 666.789 224.927 665.747 224.69L662.054 223.881C660.018 223.417 658.512 222.678 657.537 221.665C656.571 220.652 656.088 219.368 656.088 217.815C656.088 216.528 656.448 215.401 657.168 214.435C657.887 213.469 658.882 212.716 660.151 212.176C661.42 211.627 662.873 211.352 664.511 211.352C666.869 211.352 668.725 211.864 670.08 212.886C671.434 213.9 672.329 215.259 672.764 216.963ZM686.61 233.895C684.565 233.895 682.78 233.426 681.255 232.489C679.731 231.551 678.547 230.24 677.704 228.554C676.861 226.868 676.44 224.899 676.44 222.645C676.44 220.382 676.861 218.403 677.704 216.707C678.547 215.012 679.731 213.696 681.255 212.759C682.78 211.821 684.565 211.352 686.61 211.352C688.656 211.352 690.441 211.821 691.966 212.759C693.49 213.696 694.674 215.012 695.517 216.707C696.359 218.403 696.781 220.382 696.781 222.645C696.781 224.899 696.359 226.868 695.517 228.554C694.674 230.24 693.49 231.551 691.966 232.489C690.441 233.426 688.656 233.895 686.61 233.895ZM686.625 230.33C687.95 230.33 689.049 229.979 689.92 229.278C690.791 228.578 691.435 227.645 691.852 226.48C692.278 225.315 692.491 224.032 692.491 222.631C692.491 221.239 692.278 219.96 691.852 218.796C691.435 217.621 690.791 216.679 689.92 215.969C689.049 215.259 687.95 214.903 686.625 214.903C685.289 214.903 684.181 215.259 683.301 215.969C682.43 216.679 681.781 217.621 681.355 218.796C680.938 219.96 680.73 221.239 680.73 222.631C680.73 224.032 680.938 225.315 681.355 226.48C681.781 227.645 682.43 228.578 683.301 229.278C684.181 229.979 685.289 230.33 686.625 230.33ZM719.395 233.881C717.634 233.881 716.062 233.431 714.679 232.531C713.306 231.622 712.227 230.33 711.441 228.653C710.664 226.968 710.276 224.946 710.276 222.588C710.276 220.23 710.669 218.213 711.455 216.537C712.25 214.861 713.339 213.578 714.722 212.688C716.104 211.797 717.672 211.352 719.424 211.352C720.778 211.352 721.867 211.58 722.691 212.034C723.524 212.479 724.168 213 724.622 213.597C725.086 214.193 725.446 214.719 725.702 215.173H725.958V204.364H730.205V233.455H726.057V230.06H725.702C725.446 230.524 725.077 231.054 724.594 231.651C724.121 232.247 723.467 232.768 722.634 233.213C721.8 233.658 720.721 233.881 719.395 233.881ZM720.333 230.259C721.554 230.259 722.586 229.937 723.429 229.293C724.282 228.639 724.925 227.735 725.361 226.58C725.806 225.424 726.029 224.08 726.029 222.545C726.029 221.03 725.811 219.705 725.375 218.568C724.94 217.432 724.3 216.546 723.458 215.912C722.615 215.278 721.573 214.96 720.333 214.96C719.054 214.96 717.989 215.292 717.137 215.955C716.284 216.617 715.64 217.522 715.205 218.668C714.779 219.813 714.566 221.106 714.566 222.545C714.566 224.004 714.783 225.315 715.219 226.48C715.655 227.645 716.299 228.568 717.151 229.25C718.013 229.922 719.073 230.259 720.333 230.259ZM745.23 233.895C743.08 233.895 741.229 233.436 739.676 232.517C738.132 231.589 736.939 230.287 736.096 228.611C735.263 226.925 734.846 224.951 734.846 222.688C734.846 220.453 735.263 218.483 736.096 216.778C736.939 215.074 738.114 213.743 739.619 212.787C741.134 211.831 742.905 211.352 744.932 211.352C746.163 211.352 747.356 211.556 748.511 211.963C749.667 212.37 750.704 213.01 751.622 213.881C752.541 214.752 753.265 215.884 753.795 217.276C754.326 218.658 754.591 220.339 754.591 222.318V223.824H737.247V220.642H750.429C750.429 219.525 750.202 218.535 749.747 217.673C749.293 216.802 748.653 216.116 747.829 215.614C747.015 215.112 746.059 214.861 744.96 214.861C743.767 214.861 742.725 215.154 741.835 215.742C740.954 216.319 740.273 217.077 739.79 218.014C739.316 218.942 739.079 219.951 739.079 221.04V223.526C739.079 224.984 739.335 226.224 739.846 227.247C740.367 228.27 741.092 229.051 742.02 229.591C742.948 230.121 744.032 230.386 745.273 230.386C746.078 230.386 746.811 230.273 747.474 230.045C748.137 229.809 748.71 229.458 749.193 228.994C749.676 228.53 750.045 227.957 750.301 227.276L754.321 228C753.999 229.184 753.421 230.221 752.588 231.111C751.764 231.992 750.727 232.678 749.477 233.17C748.237 233.653 746.821 233.895 745.23 233.895ZM782.83 224.406V211.636H787.091V233.455H782.915V229.676H782.688C782.186 230.841 781.381 231.812 780.273 232.588C779.175 233.355 777.806 233.739 776.168 233.739C774.767 233.739 773.526 233.431 772.447 232.815C771.377 232.19 770.534 231.267 769.918 230.045C769.312 228.824 769.009 227.313 769.009 225.514V211.636H773.256V225.003C773.256 226.49 773.668 227.673 774.492 228.554C775.316 229.435 776.386 229.875 777.702 229.875C778.498 229.875 779.288 229.676 780.074 229.278C780.87 228.881 781.528 228.279 782.049 227.474C782.579 226.67 782.84 225.647 782.83 224.406ZM796.605 220.5V233.455H792.358V211.636H796.435V215.188H796.705C797.207 214.032 797.993 213.104 799.063 212.403C800.142 211.703 801.501 211.352 803.139 211.352C804.626 211.352 805.928 211.665 807.046 212.29C808.163 212.905 809.03 213.824 809.645 215.046C810.261 216.267 810.568 217.778 810.568 219.577V233.455H806.321V220.088C806.321 218.507 805.909 217.271 805.085 216.381C804.262 215.481 803.13 215.031 801.691 215.031C800.706 215.031 799.83 215.244 799.063 215.671C798.305 216.097 797.704 216.722 797.259 217.546C796.823 218.36 796.605 219.345 796.605 220.5ZM822.174 233.938C820.791 233.938 819.541 233.682 818.424 233.17C817.306 232.65 816.421 231.897 815.768 230.912C815.124 229.927 814.802 228.72 814.802 227.29C814.802 226.059 815.038 225.045 815.512 224.25C815.985 223.455 816.625 222.825 817.43 222.361C818.234 221.897 819.134 221.546 820.128 221.31C821.123 221.073 822.136 220.893 823.168 220.77C824.475 220.618 825.536 220.495 826.35 220.401C827.164 220.296 827.756 220.131 828.126 219.903C828.495 219.676 828.68 219.307 828.68 218.796V218.696C828.68 217.456 828.329 216.494 827.628 215.813C826.937 215.131 825.905 214.79 824.532 214.79C823.102 214.79 821.975 215.107 821.151 215.742C820.337 216.367 819.773 217.063 819.461 217.83L815.469 216.921C815.943 215.595 816.634 214.525 817.543 213.71C818.462 212.886 819.518 212.29 820.711 211.92C821.904 211.542 823.159 211.352 824.475 211.352C825.346 211.352 826.269 211.456 827.245 211.665C828.23 211.864 829.148 212.233 830.001 212.773C830.862 213.313 831.568 214.084 832.117 215.088C832.666 216.082 832.941 217.375 832.941 218.966V233.455H828.793V230.472H828.623C828.348 231.021 827.936 231.561 827.387 232.091C826.838 232.621 826.132 233.062 825.27 233.412C824.409 233.762 823.376 233.938 822.174 233.938ZM823.097 230.528C824.271 230.528 825.275 230.296 826.109 229.832C826.951 229.368 827.591 228.762 828.026 228.014C828.471 227.257 828.694 226.447 828.694 225.585V222.773C828.542 222.924 828.249 223.066 827.813 223.199C827.387 223.322 826.899 223.431 826.35 223.526C825.801 223.611 825.266 223.691 824.745 223.767C824.224 223.833 823.788 223.89 823.438 223.938C822.614 224.042 821.861 224.217 821.18 224.463C820.507 224.709 819.967 225.064 819.56 225.528C819.162 225.983 818.964 226.589 818.964 227.347C818.964 228.398 819.352 229.193 820.128 229.733C820.905 230.263 821.894 230.528 823.097 230.528ZM856.471 233.881C854.71 233.881 853.138 233.431 851.755 232.531C850.382 231.622 849.303 230.33 848.517 228.653C847.74 226.968 847.352 224.946 847.352 222.588C847.352 220.23 847.745 218.213 848.531 216.537C849.327 214.861 850.416 213.578 851.798 212.688C853.181 211.797 854.748 211.352 856.5 211.352C857.854 211.352 858.943 211.58 859.767 212.034C860.6 212.479 861.244 213 861.699 213.597C862.163 214.193 862.523 214.719 862.778 215.173H863.034V204.364H867.281V233.455H863.133V230.06H862.778C862.523 230.524 862.153 231.054 861.67 231.651C861.197 232.247 860.543 232.768 859.71 233.213C858.877 233.658 857.797 233.881 856.471 233.881ZM857.409 230.259C858.63 230.259 859.663 229.937 860.505 229.293C861.358 228.639 862.002 227.735 862.437 226.58C862.882 225.424 863.105 224.08 863.105 222.545C863.105 221.03 862.887 219.705 862.452 218.568C862.016 217.432 861.377 216.546 860.534 215.912C859.691 215.278 858.649 214.96 857.409 214.96C856.13 214.96 855.065 215.292 854.213 215.955C853.361 216.617 852.717 217.522 852.281 218.668C851.855 219.813 851.642 221.106 851.642 222.545C851.642 224.004 851.86 225.315 852.295 226.48C852.731 227.645 853.375 228.568 854.227 229.25C855.089 229.922 856.149 230.259 857.409 230.259ZM882.306 233.895C880.157 233.895 878.305 233.436 876.752 232.517C875.209 231.589 874.016 230.287 873.173 228.611C872.339 226.925 871.923 224.951 871.923 222.688C871.923 220.453 872.339 218.483 873.173 216.778C874.016 215.074 875.19 213.743 876.695 212.787C878.211 211.831 879.981 211.352 882.008 211.352C883.239 211.352 884.432 211.556 885.588 211.963C886.743 212.37 887.78 213.01 888.698 213.881C889.617 214.752 890.341 215.884 890.872 217.276C891.402 218.658 891.667 220.339 891.667 222.318V223.824H874.323V220.642H887.505C887.505 219.525 887.278 218.535 886.823 217.673C886.369 216.802 885.73 216.116 884.906 215.614C884.091 215.112 883.135 214.861 882.036 214.861C880.843 214.861 879.802 215.154 878.911 215.742C878.031 216.319 877.349 217.077 876.866 218.014C876.392 218.942 876.156 219.951 876.156 221.04V223.526C876.156 224.984 876.411 226.224 876.923 227.247C877.444 228.27 878.168 229.051 879.096 229.591C880.024 230.121 881.108 230.386 882.349 230.386C883.154 230.386 883.888 230.273 884.551 230.045C885.213 229.809 885.786 229.458 886.269 228.994C886.752 228.53 887.122 227.957 887.377 227.276L891.397 228C891.075 229.184 890.498 230.221 889.664 231.111C888.84 231.992 887.803 232.678 886.553 233.17C885.313 233.653 883.897 233.895 882.306 233.895ZM900.187 220.5V233.455H895.939V211.636H900.016V215.188H900.286C900.788 214.032 901.574 213.104 902.644 212.403C903.723 211.703 905.082 211.352 906.721 211.352C908.207 211.352 909.509 211.665 910.627 212.29C911.744 212.905 912.611 213.824 913.226 215.046C913.842 216.267 914.15 217.778 914.15 219.577V233.455H909.902V220.088C909.902 218.507 909.491 217.271 908.667 216.381C907.843 215.481 906.711 215.031 905.272 215.031C904.287 215.031 903.411 215.244 902.644 215.671C901.886 216.097 901.285 216.722 900.84 217.546C900.404 218.36 900.187 219.345 900.187 220.5ZM933.227 224.406V211.636H937.488V233.455H933.312V229.676H933.085C932.583 230.841 931.778 231.812 930.67 232.588C929.571 233.355 928.203 233.739 926.565 233.739C925.163 233.739 923.923 233.431 922.843 232.815C921.773 232.19 920.93 231.267 920.315 230.045C919.709 228.824 919.406 227.313 919.406 225.514V211.636H923.653V225.003C923.653 226.49 924.065 227.673 924.889 228.554C925.712 229.435 926.783 229.875 928.099 229.875C928.894 229.875 929.685 229.676 930.471 229.278C931.266 228.881 931.925 228.279 932.445 227.474C932.976 226.67 933.236 225.647 933.227 224.406ZM947.002 220.5V233.455H942.755V211.636H946.831V215.188H947.101C947.603 214.032 948.389 213.104 949.459 212.403C950.539 211.703 951.898 211.352 953.536 211.352C955.023 211.352 956.325 211.665 957.442 212.29C958.56 212.905 959.426 213.824 960.042 215.046C960.657 216.267 960.965 217.778 960.965 219.577V233.455H956.718V220.088C956.718 218.507 956.306 217.271 955.482 216.381C954.658 215.481 953.526 215.031 952.087 215.031C951.102 215.031 950.226 215.244 949.459 215.671C948.702 216.097 948.1 216.722 947.655 217.546C947.22 218.36 947.002 219.345 947.002 220.5ZM975.411 233.895C973.3 233.895 971.481 233.417 969.957 232.46C968.442 231.494 967.277 230.164 966.462 228.469C965.648 226.774 965.241 224.832 965.241 222.645C965.241 220.429 965.658 218.474 966.491 216.778C967.324 215.074 968.498 213.743 970.014 212.787C971.529 211.831 973.314 211.352 975.369 211.352C977.026 211.352 978.503 211.66 979.801 212.276C981.098 212.882 982.144 213.734 982.94 214.832C983.745 215.931 984.223 217.214 984.374 218.682H980.241C980.014 217.659 979.493 216.778 978.678 216.04C977.873 215.301 976.794 214.932 975.44 214.932C974.256 214.932 973.219 215.244 972.329 215.869C971.448 216.485 970.762 217.366 970.269 218.511C969.777 219.648 969.531 220.992 969.531 222.545C969.531 224.136 969.772 225.51 970.255 226.665C970.738 227.82 971.42 228.715 972.301 229.349C973.191 229.984 974.237 230.301 975.44 230.301C976.245 230.301 976.974 230.154 977.627 229.861C978.29 229.558 978.844 229.127 979.289 228.568C979.744 228.01 980.061 227.337 980.241 226.551H984.374C984.223 227.962 983.764 229.222 982.997 230.33C982.229 231.438 981.202 232.309 979.914 232.943C978.636 233.578 977.135 233.895 975.411 233.895ZM988.476 233.455V211.636H992.723V233.455H988.476ZM990.621 208.27C989.883 208.27 989.248 208.024 988.718 207.531C988.197 207.029 987.936 206.433 987.936 205.742C987.936 205.041 988.197 204.444 988.718 203.952C989.248 203.45 989.883 203.199 990.621 203.199C991.36 203.199 991.99 203.45 992.51 203.952C993.041 204.444 993.306 205.041 993.306 205.742C993.306 206.433 993.041 207.029 992.51 207.531C991.99 208.024 991.36 208.27 990.621 208.27ZM1004.35 233.938C1002.96 233.938 1001.71 233.682 1000.6 233.17C999.479 232.65 998.594 231.897 997.94 230.912C997.296 229.927 996.974 228.72 996.974 227.29C996.974 226.059 997.211 225.045 997.685 224.25C998.158 223.455 998.797 222.825 999.602 222.361C1000.41 221.897 1001.31 221.546 1002.3 221.31C1003.3 221.073 1004.31 220.893 1005.34 220.77C1006.65 220.618 1007.71 220.495 1008.52 220.401C1009.34 220.296 1009.93 220.131 1010.3 219.903C1010.67 219.676 1010.85 219.307 1010.85 218.796V218.696C1010.85 217.456 1010.5 216.494 1009.8 215.813C1009.11 215.131 1008.08 214.79 1006.7 214.79C1005.27 214.79 1004.15 215.107 1003.32 215.742C1002.51 216.367 1001.95 217.063 1001.63 217.83L997.642 216.921C998.116 215.595 998.807 214.525 999.716 213.71C1000.63 212.886 1001.69 212.29 1002.88 211.92C1004.08 211.542 1005.33 211.352 1006.65 211.352C1007.52 211.352 1008.44 211.456 1009.42 211.665C1010.4 211.864 1011.32 212.233 1012.17 212.773C1013.04 213.313 1013.74 214.084 1014.29 215.088C1014.84 216.082 1015.11 217.375 1015.11 218.966V233.455H1010.97V230.472H1010.8C1010.52 231.021 1010.11 231.561 1009.56 232.091C1009.01 232.621 1008.3 233.062 1007.44 233.412C1006.58 233.762 1005.55 233.938 1004.35 233.938ZM1005.27 230.528C1006.44 230.528 1007.45 230.296 1008.28 229.832C1009.12 229.368 1009.76 228.762 1010.2 228.014C1010.64 227.257 1010.87 226.447 1010.87 225.585V222.773C1010.72 222.924 1010.42 223.066 1009.99 223.199C1009.56 223.322 1009.07 223.431 1008.52 223.526C1007.97 223.611 1007.44 223.691 1006.92 223.767C1006.4 223.833 1005.96 223.89 1005.61 223.938C1004.79 224.042 1004.03 224.217 1003.35 224.463C1002.68 224.709 1002.14 225.064 1001.73 225.528C1001.34 225.983 1001.14 226.589 1001.14 227.347C1001.14 228.398 1001.52 229.193 1002.3 229.733C1003.08 230.263 1004.07 230.528 1005.27 230.528Z" fill="#1E1E1E"/>
</svg>
