<svg width="20" height="20" viewBox="0 0 20 20" fill="none" xmlns="http://www.w3.org/2000/svg">
<path d="M7.9165 13.7503L13.7498 10.0003L7.9165 6.25033V13.7503ZM9.99984 18.3337C8.84706 18.3337 7.76373 18.1148 6.74984 17.677C5.73595 17.2392 4.854 16.6456 4.104 15.8962C3.354 15.1462 2.76039 14.2642 2.32317 13.2503C1.88595 12.2364 1.66706 11.1531 1.6665 10.0003C1.6665 8.84755 1.88539 7.76422 2.32317 6.75033C2.76095 5.73644 3.35456 4.85449 4.104 4.10449C4.854 3.35449 5.73595 2.76088 6.74984 2.32366C7.76373 1.88644 8.84706 1.66755 9.99984 1.66699C11.1526 1.66699 12.2359 1.88588 13.2498 2.32366C14.2637 2.76144 15.1457 3.35505 15.8957 4.10449C16.6457 4.85449 17.2396 5.73644 17.6773 6.75033C18.1151 7.76422 18.3337 8.84755 18.3332 10.0003C18.3332 11.1531 18.1143 12.2364 17.6765 13.2503C17.2387 14.2642 16.6451 15.1462 15.8957 15.8962C15.1457 16.6462 14.2637 17.24 13.2498 17.6778C12.2359 18.1156 11.1526 18.3342 9.99984 18.3337ZM9.99984 16.667C11.8609 16.667 13.4373 16.0212 14.729 14.7295C16.0207 13.4378 16.6665 11.8614 16.6665 10.0003C16.6665 8.13921 16.0207 6.56283 14.729 5.27116C13.4373 3.97949 11.8609 3.33366 9.99984 3.33366C8.13873 3.33366 6.56234 3.97949 5.27067 5.27116C3.979 6.56283 3.33317 8.13921 3.33317 10.0003C3.33317 11.8614 3.979 13.4378 5.27067 14.7295C6.56234 16.0212 8.13873 16.667 9.99984 16.667Z" fill="#F9F9F9"/>
</svg>
