<svg width="40" height="40" viewBox="0 0 40 40" fill="none" xmlns="http://www.w3.org/2000/svg">
<path fill-rule="evenodd" clip-rule="evenodd" d="M18.3333 16.6663V19.7896C15.9907 19.1867 14.1463 17.3424 13.5434 14.9997H16.6667V11.6663H13.5434C14.1463 9.32366 15.9907 7.47933 18.3333 6.87637V9.99967H21.6667V6.87637C24.0093 7.47933 25.8537 9.32366 26.4566 11.6663H23.3333V14.9997H26.4566C25.8537 17.3424 24.0093 19.1867 21.6667 19.7896V16.6663H18.3333ZM20 23.333C25.5228 23.333 30 18.8559 30 13.333C30 7.81016 25.5228 3.33301 20 3.33301C14.4772 3.33301 10 7.81016 10 13.333C10 18.8559 14.4772 23.333 20 23.333Z" fill="#0E2E4A"/>
<path fill-rule="evenodd" clip-rule="evenodd" d="M8.33333 33.3337C9.25381 33.3337 10 32.5875 10 31.667C10 30.7465 9.25381 30.0003 8.33333 30.0003C7.41286 30.0003 6.66667 30.7465 6.66667 31.667C6.66667 32.5875 7.41286 33.3337 8.33333 33.3337ZM3.61784 33.3337C4.30424 35.2756 6.1563 36.667 8.33333 36.667C10.5104 36.667 12.3624 35.2756 13.0488 33.3337H15.2845C15.9709 35.2756 17.823 36.667 20 36.667C22.177 36.667 24.0291 35.2756 24.7155 33.3337H26.9512C27.6376 35.2756 29.4896 36.667 31.6667 36.667C33.8437 36.667 35.6958 35.2756 36.3822 33.3337H40V30.0003H36.3822C35.6958 28.0583 33.8437 26.667 31.6667 26.667C29.4896 26.667 27.6376 28.0583 26.9512 30.0003H24.7155C24.0291 28.0583 22.177 26.667 20 26.667C17.823 26.667 15.9709 28.0583 15.2845 30.0003H13.0488C12.3624 28.0583 10.5104 26.667 8.33333 26.667C6.1563 26.667 4.30424 28.0583 3.61784 30.0003H0V33.3337H3.61784ZM20 33.3337C19.0795 33.3337 18.3333 32.5875 18.3333 31.667C18.3333 30.7465 19.0795 30.0003 20 30.0003C20.9205 30.0003 21.6667 30.7465 21.6667 31.667C21.6667 32.5875 20.9205 33.3337 20 33.3337ZM30 31.667C30 32.5875 30.7462 33.3337 31.6667 33.3337C32.5871 33.3337 33.3333 32.5875 33.3333 31.667C33.3333 30.7465 32.5871 30.0003 31.6667 30.0003C30.7462 30.0003 30 30.7465 30 31.667Z" fill="#0E2E4A"/>
</svg>
