<svg width="22" height="21" viewBox="0 0 22 21" fill="none" xmlns="http://www.w3.org/2000/svg">
<path d="M17.5 12.0009C17.2348 12.0009 16.9804 12.1063 16.7929 12.2938C16.6054 12.4813 16.5 12.7357 16.5 13.0009V13.3809L15.02 11.9009C14.4974 11.3825 13.7911 11.0915 13.055 11.0915C12.3189 11.0915 11.6126 11.3825 11.09 11.9009L10.39 12.6009L7.91 10.1209C7.38012 9.61645 6.67657 9.33515 5.945 9.33515C5.21343 9.33515 4.50988 9.61645 3.98 10.1209L2.5 11.6009V6.00087C2.5 5.73565 2.60536 5.4813 2.79289 5.29376C2.98043 5.10623 3.23478 5.00087 3.5 5.00087H10.5C10.7652 5.00087 11.0196 4.89551 11.2071 4.70797C11.3946 4.52044 11.5 4.26608 11.5 4.00087C11.5 3.73565 11.3946 3.4813 11.2071 3.29376C11.0196 3.10623 10.7652 3.00087 10.5 3.00087H3.5C2.70435 3.00087 1.94129 3.31694 1.37868 3.87955C0.81607 4.44216 0.5 5.20522 0.5 6.00087V18.0009C0.5 18.7966 0.81607 19.5596 1.37868 20.1222C1.94129 20.6848 2.70435 21.0009 3.5 21.0009H15.5C16.2956 21.0009 17.0587 20.6848 17.6213 20.1222C18.1839 19.5596 18.5 18.7966 18.5 18.0009V13.0009C18.5 12.7357 18.3946 12.4813 18.2071 12.2938C18.0196 12.1063 17.7652 12.0009 17.5 12.0009ZM3.5 19.0009C3.23478 19.0009 2.98043 18.8956 2.79289 18.708C2.60536 18.5205 2.5 18.2661 2.5 18.0009V14.4309L5.4 11.5309C5.54691 11.3909 5.74206 11.3128 5.945 11.3128C6.14794 11.3128 6.34309 11.3909 6.49 11.5309L9.66 14.7009L13.96 19.0009H3.5ZM16.5 18.0009C16.4986 18.1923 16.4354 18.3782 16.32 18.5309L11.81 14.0009L12.51 13.3009C12.5817 13.2277 12.6673 13.1696 12.7617 13.1299C12.8561 13.0902 12.9576 13.0698 13.06 13.0698C13.1624 13.0698 13.2639 13.0902 13.3583 13.1299C13.4527 13.1696 13.5383 13.2277 13.61 13.3009L16.5 16.2109V18.0009ZM21.21 3.29087L18.21 0.290874C18.1149 0.199834 18.0028 0.128464 17.88 0.0808744C17.6365 -0.0191456 17.3635 -0.0191456 17.12 0.0808744C16.9972 0.128464 16.8851 0.199834 16.79 0.290874L13.79 3.29087C13.6017 3.47917 13.4959 3.73457 13.4959 4.00087C13.4959 4.26717 13.6017 4.52256 13.79 4.71087C13.9783 4.89917 14.2337 5.00496 14.5 5.00496C14.7663 5.00496 15.0217 4.89917 15.21 4.71087L16.5 3.41087V9.00085C16.5 9.26605 16.6054 9.52045 16.7929 9.70795C16.9804 9.89555 17.2348 10.0009 17.5 10.0009C17.7652 10.0009 18.0196 9.89555 18.2071 9.70795C18.3946 9.52045 18.5 9.26605 18.5 9.00085V3.41087L19.79 4.71087C19.883 4.8046 19.9936 4.87899 20.1154 4.92976C20.2373 4.98053 20.368 5.00667 20.5 5.00667C20.632 5.00667 20.7627 4.98053 20.8846 4.92976C21.0064 4.87899 21.117 4.8046 21.21 4.71087C21.3037 4.61791 21.3781 4.5073 21.4289 4.38544C21.4797 4.26359 21.5058 4.13288 21.5058 4.00087C21.5058 3.86886 21.4797 3.73815 21.4289 3.61629C21.3781 3.49443 21.3037 3.38383 21.21 3.29087Z" fill="#0E2E4A"/>
</svg>
